<svg id="Symbols" xmlns="http://www.w3.org/2000/svg" width="33.33" height="30" viewBox="0 0 33.33 30">
  <g id="icon_camera" data-name="icon/camera">
    <path id="Shape" d="M32,6.333H26.714L23.664,3h-10l-3.05,3.333H5.333A3.343,3.343,0,0,0,2,9.667v20A3.343,3.343,0,0,0,5.333,33H32a3.343,3.343,0,0,0,3.333-3.333v-20A3.343,3.343,0,0,0,32,6.333Zm0,23.333H5.333v-20h6.749l.983-1.083,2.066-2.25H22.2l2.066,2.25.983,1.083H32ZM18.665,11.333A8.333,8.333,0,1,0,27,19.667,8.336,8.336,0,0,0,18.665,11.333Zm0,13.667A5.333,5.333,0,1,1,24,19.667,5.327,5.327,0,0,1,18.665,25Z" transform="translate(-2 -3)" fill="#52bfc0" fill-rule="evenodd"/>
  </g>
</svg>
