<svg xmlns="http://www.w3.org/2000/svg" width="16" height="20" viewBox="0 0 16 20">
  <path id="Shape" d="M8,20H8a33.656,33.656,0,0,1-6-6.36A9.943,9.943,0,0,1,0,8.2,8.194,8.194,0,0,1,2.425,2.233,7.966,7.966,0,0,1,8,0a7.966,7.966,0,0,1,5.575,2.233A8.194,8.194,0,0,1,16,8.2a9.943,9.943,0,0,1-2,5.439A33.656,33.656,0,0,1,8,20ZM8,2A5.969,5.969,0,0,0,2,8.2c0,2.394,2.075,5.554,6,9.14,3.925-3.586,6-6.746,6-9.14A5.969,5.969,0,0,0,8,2Zm0,8a2,2,0,1,1,2-2A2,2,0,0,1,8,10Z" transform="translate(0 0)" fill="#3d3c3c"/>
</svg>
