<?xml version="1.0" encoding="UTF-8"?>
<svg width="84px" height="84px" viewBox="0 0 84 84" version="1.1" xmlns="http://www.w3.org/2000/svg" xmlns:xlink="http://www.w3.org/1999/xlink">
    <title>icon-no-surprises</title>
    <g id="✅----READY-FOR-DEVELOPMENT" stroke="none" stroke-width="1" fill="none" fill-rule="evenodd">
        <g id="Special-Offers" transform="translate(-844.000000, -1365.000000)" fill="#52BFC0">
            <g id="Group" transform="translate(71.000000, 1236.000000)">
                <g id="Group-3-Copy" transform="translate(0.000000, 119.000000)">
                    <g id="Select-Dates-2-Copy" transform="translate(663.000000, 10.000000)">
                        <g id="icon-no-surprises" transform="translate(110.000000, 0.000000)">
                            <circle id="Oval" fill-opacity="0.183948864" cx="42" cy="42" r="42"></circle>
                            <g id="Group-11" transform="translate(19.000000, 24.000000)">
                                <path d="M27.32665,4.3935 C21.79865,4.3935 17.30065,8.8915 17.30065,14.4195 C17.30065,19.9485 21.79865,24.4465 27.32665,24.4465 C32.85565,24.4465 37.35365,19.9485 37.35365,14.4195 C37.35365,8.8915 32.85565,4.3935 27.32665,4.3935 M27.32665,25.9465 C20.97165,25.9465 15.80065,20.7755 15.80065,14.4195 C15.80065,8.0645 20.97165,2.8935 27.32665,2.8935 C33.68265,2.8935 38.85365,8.0645 38.85365,14.4195 C38.85365,20.7755 33.68265,25.9465 27.32665,25.9465" id="Fill-1"></path>
                                <path d="M27.32665,1.5 C20.20265,1.5 14.40665,7.296 14.40665,14.42 C14.40665,21.544 20.20265,27.34 27.32665,27.34 C34.45165,27.34 40.24665,21.544 40.24665,14.42 C40.24665,7.296 34.45165,1.5 27.32665,1.5 M27.32665,28.84 C19.37565,28.84 12.90665,22.371 12.90665,14.42 C12.90665,6.469 19.37565,0 27.32665,0 C35.27865,0 41.74665,6.469 41.74665,14.42 C41.74665,22.371 35.27865,28.84 27.32665,28.84" id="Fill-3"></path>
                                <path d="M10.55325,27.3862 L1.90225,36.0372 C1.64125,36.2982 1.49825,36.6442 1.49825,37.0132 C1.49825,37.3822 1.64125,37.7282 1.90225,37.9892 L2.73025,38.8172 C3.25125,39.3382 4.16025,39.3382 4.68225,38.8172 L13.33325,30.1662 L10.55325,27.3862 Z M3.70625,40.7192 C2.96825,40.7192 2.23125,40.4392 1.66925,39.8772 L0.84225,39.0502 C-0.28075,37.9272 -0.28075,36.0992 0.84225,34.9762 L10.55325,25.2652 L15.45425,30.1662 L5.74225,39.8772 C5.18125,40.4392 4.44425,40.7192 3.70625,40.7192 L3.70625,40.7192 Z" id="Fill-5"></path>
                                <polygon id="Fill-7" points="13.00345 28.7763 11.94245 27.7153 16.61845 23.0403 17.67845 24.1013"></polygon>
                                <path d="M23.88915,13.1421 C23.70015,13.1421 23.51015,13.2141 23.36615,13.3581 L22.89615,13.8281 C22.60815,14.1171 22.60815,14.5861 22.89715,14.8741 L25.89315,17.8711 C26.18215,18.1601 26.65115,18.1611 26.93915,17.8711 L32.23015,12.5811 C32.64815,12.1631 32.64815,11.4831 32.23015,11.0651 C31.81215,10.6471 31.13315,10.6471 30.71515,11.0651 L26.41715,15.3631 L24.41215,13.3581 C24.26815,13.2141 24.07815,13.1421 23.88915,13.1421 M26.41715,19.5871 C25.84415,19.5871 25.27015,19.3691 24.83315,18.9331 L21.83615,15.9351 C20.96315,15.0611 20.96315,13.6411 21.83615,12.7671 L22.30615,12.2981 C23.17915,11.4251 24.59915,11.4251 25.47215,12.2981 L26.41715,13.2421 L29.65415,10.0051 C30.65715,9.0021 32.28815,9.0021 33.29115,10.0051 C34.29415,11.0071 34.29415,12.6391 33.29115,13.6421 L28.00015,18.9321 C27.56415,19.3691 26.99115,19.5871 26.41715,19.5871" id="Fill-9"></path>
                            </g>
                        </g>
                    </g>
                </g>
            </g>
        </g>
    </g>
</svg>