<?xml version="1.0" encoding="UTF-8"?>
<svg width="84px" height="84px" viewBox="0 0 84 84" version="1.1" xmlns="http://www.w3.org/2000/svg" xmlns:xlink="http://www.w3.org/1999/xlink">
    <title>icon-easy-returns</title>
    <defs>
        <polygon id="path-1" points="0 0 47 0 47 47 0 47"></polygon>
    </defs>
    <g id="✅----READY-FOR-DEVELOPMENT" stroke="none" stroke-width="1" fill="none" fill-rule="evenodd">
        <g id="How-it-Works" transform="translate(-1121.000000, -1316.000000)">
            <g id="We've-made-renting-easy" transform="translate(125.000000, 1228.000000)">
                <g id="Group-3-Copy" transform="translate(0.000000, 78.000000)">
                    <g id="Select-Dates-2-Copy-2" transform="translate(886.000000, 10.000000)">
                        <g id="icon-easy-returns" transform="translate(110.000000, 0.000000)">
                            <circle id="Oval" fill-opacity="0.183948864" fill="#52BFC0" cx="42" cy="42" r="42"></circle>
                            <g id="box" transform="translate(20.000000, 19.000000)">
                                <g id="Group-3">
                                    <mask id="mask-2" fill="white">
                                        <use xlink:href="#path-1"></use>
                                    </mask>
                                    <g id="Clip-2"></g>
                                    <path d="M37.9317972,45.8303439 C33.5723413,45.8303439 30.0259999,42.258214 30.0259999,37.8684946 C30.0259999,33.4787751 33.5723413,29.9089846 37.9317972,29.9089846 C42.2912532,29.9089846 45.8387562,33.4787751 45.8387562,37.8684946 C45.8387562,42.258214 42.2912532,45.8303439 37.9317972,45.8303439 L37.9317972,45.8303439 Z M22.4047927,44.9601197 L22.4047927,20.3751174 L42.4864007,11.2857196 L42.4864007,29.9873515 C41.1459232,29.1990033 39.5928742,28.7393284 37.9317972,28.7393284 C32.9323039,28.7393284 28.8644076,32.8354642 28.8644076,37.8684946 C28.8644076,39.2019026 29.1571288,40.4663008 29.6693911,41.6090549 L22.4047927,44.9601197 Z M1.16159232,35.8052211 L1.16159232,11.2927376 L8.31003146,14.5783016 L8.31003146,20.0710068 C8.31003146,20.3049381 8.44942254,20.5166458 8.66431712,20.6090487 L13.0028644,22.4606143 C13.0760448,22.4910254 13.1527098,22.5062309 13.2293749,22.5062309 C13.3420494,22.5062309 13.4547238,22.4734805 13.551136,22.4091494 C13.7125973,22.3003714 13.8101711,22.1179051 13.8101711,21.9214028 L13.8101711,17.1059285 L21.2432004,20.5213244 L21.2432004,44.9636287 L1.16159232,35.8052211 Z M21.8239965,1.22784653 L28.8678924,4.47715127 L8.89315081,13.5595311 L1.97703013,10.3804058 L21.8239965,1.22784653 Z M10.2963543,14.2040117 L30.2699343,5.12280145 L32.5431705,6.171983 L13.223567,15.5491162 L10.2963543,14.2040117 Z M9.47162378,15.1116648 L12.6485788,16.5713957 L12.6485788,21.0383125 L9.47162378,19.6838507 L9.47162378,15.1116648 Z M21.6636968,19.4288656 L14.5965691,16.1807305 L33.9138494,6.80359731 L41.6616702,10.3768968 L21.6636968,19.4288656 Z M43.647993,30.7897356 L43.647993,10.3815754 C43.647993,10.277476 43.6131453,10.1850732 43.5666816,10.100858 C43.5539041,10.0786345 43.5411265,10.05992 43.5260258,10.0400358 C43.4725926,9.96751716 43.4063818,9.90669504 43.3250704,9.86458742 C43.3181008,9.86107845 43.3157776,9.85406051 43.3088081,9.85055154 L43.2937074,9.84353361 C43.2937074,9.84353361 43.2937074,9.84353361 43.2925458,9.84353361 L22.0656077,0.0535117681 C21.9134391,-0.017837256 21.7345539,-0.017837256 21.5823853,0.0535117681 L0.354285658,9.84353361 C0.354285658,9.84353361 0.354285658,9.84353361 0.354285658,9.84353361 L0.339184958,9.85055154 C0.332215404,9.85406051 0.328730627,9.86107845 0.321761073,9.86458742 C0.24044961,9.90669504 0.17540044,9.96751716 0.121967194,10.0400358 C0.106866493,10.05992 0.094088978,10.0774648 0.0824730548,10.0985186 C0.0348477696,10.1839035 0,10.277476 0,10.3815754 L0,36.1818504 C0,36.411103 0.133583117,36.6193018 0.341508142,36.714044 L21.5847085,46.4023057 C21.660212,46.4385651 21.7415235,46.4549402 21.8239965,46.4549402 C21.905308,46.4549402 21.9866194,46.4385651 22.0656077,46.4011361 L30.216501,42.6418612 C31.8148521,45.2513641 34.6712076,47 37.9317972,47 C42.9324522,47 47.0003485,42.9038642 47.0003485,37.8684946 C47.0003485,35.0157033 45.6912339,32.4658529 43.647993,30.7897356 L43.647993,30.7897356 Z" id="Fill-1" fill="#52BFC0" mask="url(#mask-2)"></path>
                                </g>
                                <path d="M7.77775514,35.5197057 L4.22224486,33.9917725 L4.22224486,31.5017642 L7.77775514,33.1098703 L7.77775514,35.5197057 Z M8.65166022,32.2186728 L3.87390507,30.0574896 C3.68445712,29.9703452 3.46200856,29.9831263 3.28478305,30.0900236 C3.10755755,30.1969208 3,30.3816671 3,30.5815185 L3,34.3659128 C3,34.5936504 3.14055816,34.8016352 3.35933999,34.8957513 L8.13709513,36.9488752 C8.21654105,36.983733 8.30332043,37 8.38887757,37 C8.50499083,37 8.61988185,36.968628 8.72010593,36.9070459 C8.89488694,36.8013106 9,36.6165643 9,36.4190368 L9,32.7427016 C9,32.5184498 8.86433082,32.3151127 8.65166022,32.2186728 L8.65166022,32.2186728 Z" id="Fill-4" fill="#52BFC0"></path>
                                <path d="M41.6220387,37.4060285 L37.460165,41.6032978 C37.1914661,41.8718944 36.7582335,41.8707006 36.4421868,41.5555473 L34.3849238,39.4807879 C34.2547173,39.3506678 34.1836956,39.1751847 34.1836956,38.9901515 C34.1836956,38.806312 34.2547173,38.6320227 34.4334554,38.4529583 C34.5624782,38.3228382 34.7352977,38.2500187 34.9175869,38.2500187 L34.9187706,38.2500187 C35.1010597,38.2500187 35.2750629,38.3228382 35.4040858,38.4529583 L36.5570053,39.6168768 C36.667089,39.7278967 36.8174183,39.7911662 36.9748498,39.7911662 C37.1322813,39.7911662 37.2826107,39.7278967 37.3938781,39.6168768 L40.6040605,36.3793927 C40.8621061,36.1179587 41.2681137,36.0702082 41.6220387,36.4271432 C41.8907376,36.6969335 41.8907376,37.1350444 41.6220387,37.4060285 M39.7671877,35.5354025 L36.9748498,38.3502947 L36.2409585,37.6089681 C35.8870336,37.2520331 35.4182901,37.0562561 34.9187706,37.0562561 L34.9175869,37.0562561 C34.4168836,37.0562561 33.9481402,37.2532269 33.5480511,37.6579124 C33.1953098,38.0136537 33,38.4863836 33,38.9913452 C33.0011837,39.495113 33.1953098,39.967843 33.5480511,40.324778 L35.6526618,42.4472879 C36.0065868,42.8030292 36.4753303,43 36.9748498,43 C37.4743694,43 37.9442965,42.8030292 38.3443856,42.3995374 L42.4589115,38.2500187 C43.188068,37.5146609 43.188068,36.3185108 42.4115637,35.5354025 C41.7037137,34.8215325 40.473854,34.8215325 39.7671877,35.5354025" id="Fill-6" fill="#52BFC0"></path>
                            </g>
                        </g>
                    </g>
                </g>
            </g>
        </g>
    </g>
</svg>