<?xml version="1.0" encoding="UTF-8"?>
<svg width="106px" height="105px" viewBox="0 0 106 105" version="1.1" xmlns="http://www.w3.org/2000/svg" xmlns:xlink="http://www.w3.org/1999/xlink">
    <title>icon-capture</title>
    <g id="✅----READY-FOR-DEVELOPMENT" stroke="none" stroke-width="1" fill="none" fill-rule="evenodd">
        <g id="How-it-Works" transform="translate(-815.000000, -1306.000000)" fill="#52BFC0">
            <g id="We've-made-renting-easy" transform="translate(125.000000, 1228.000000)">
                <g id="Group-3-Copy" transform="translate(0.000000, 78.000000)">
                    <g id="Select-Dates-2-Copy" transform="translate(591.000000, 0.000000)">
                        <g id="icon-capture" transform="translate(99.674098, 0.000000)">
                            <path d="M34.3259018,15.3259018 L70.3259018,15.3259018 C80.8193121,15.3259018 89.3259018,23.8324916 89.3259018,34.3259018 L89.3259018,70.3259018 C89.3259018,80.8193121 80.8193121,89.3259018 70.3259018,89.3259018 L34.3259018,89.3259018 C23.8324916,89.3259018 15.3259018,80.8193121 15.3259018,70.3259018 L15.3259018,34.3259018 C15.3259018,23.8324916 23.8324916,15.3259018 34.3259018,15.3259018 Z" id="Rectangle" fill-opacity="0.183948864" transform="translate(52.325902, 52.325902) rotate(-45.000000) translate(-52.325902, -52.325902) "></path>
                            <g id="BRIGHTNESS" transform="translate(32.325902, 32.325902)" fill-rule="nonzero">
                                <path d="M18.4988571,7 C18.5203732,6.99960659 18.5418453,6.99765982 18.5631429,6.99417152 C19.5194189,6.85244972 20.4873169,6.84244696 21.4457143,6.96438153 C21.5864952,6.97949288 21.7264412,6.92722625 21.8317129,6.82021989 C21.9369846,6.71321352 21.997998,6.56120923 22,6.40096216 L22,2.26662966 C22,1.01480467 21.1045695,0 20,0 C18.8954305,0 18,1.01480467 18,2.26662966 L18,6.43334258 C18.0036756,6.74405435 18.2247044,6.99512335 18.4988571,7 L18.4988571,7 Z M18.9988571,2.26662966 C18.9988571,1.64071716 19.4465724,1.13331483 19.9988571,1.13331483 C20.5511419,1.13331483 20.9988571,1.64071716 20.9988571,2.26662966 L20.9988571,5.78281987 C20.3327615,5.7297402 19.6640019,5.73656144 18.9988571,5.80321954 L18.9988571,2.26662966 Z" id="Shape"></path>
                                <path d="M21.4454286,33.0291262 C20.7937748,33.1110601 20.1373242,33.1327346 19.4825714,33.0939354 C19.0471429,33.0673636 18,32.7183662 18,33.5615335 L18,37.7316792 C18,38.9844382 18.8954305,40 20,40 C21.1045695,40 22,38.9844382 22,37.7316792 L22,33.5929659 C21.998091,33.4325041 21.937064,33.2802698 21.8317066,33.1731517 C21.7263492,33.0660335 21.5862759,33.0138066 21.4454286,33.0291262 L21.4454286,33.0291262 Z M20.9997143,37.7316792 C20.9997143,38.3580587 20.551999,38.8658396 19.9997143,38.8658396 C19.4474295,38.8658396 18.9997143,38.3580587 18.9997143,37.7316792 L18.9997143,34.1924507 C19.6648625,34.2590785 20.3336165,34.2659048 20.9997143,34.2128656 L20.9997143,37.7316792 Z" id="Shape"></path>
                                <path d="M28.2168459,9.48565554 C28.6818475,9.84515591 29.1236505,10.2338724 29.5395948,10.6494647 C29.8985107,11.0109617 30.2377043,11.3916327 30.5556947,11.7898151 C30.6577835,11.9144118 30.8072963,11.9903474 30.9678481,11.9991423 C31.1283999,12.0079372 31.2852686,11.948785 31.4002789,11.8360808 L34.3339099,8.89365073 C34.9083782,8.31745944 35.1327336,7.47764231 34.9224637,6.69055034 C34.7121937,5.90345837 34.0992433,5.28866955 33.3145051,5.07776891 C32.5297669,4.86686826 31.6924611,5.09189661 31.1179929,5.66808794 L28.1619479,8.63299919 C28.0491198,8.74990242 27.9907432,8.90915022 28.0011972,9.07151734 C28.0116511,9.23388445 28.0899639,9.38427868 28.2168459,9.48565554 L28.2168459,9.48565554 Z M31.9226218,6.47350119 C32.3726684,6.04297048 33.0805338,6.04297048 33.5305803,6.47350119 C33.9737429,6.91921665 33.9737429,7.64056713 33.5305803,8.08628259 L31.0361332,10.5882115 C30.8087451,10.32756 30.5787583,10.0792894 30.3432492,9.84307396 C30.0508931,9.54984098 29.7429447,9.26670825 29.4142065,8.98944017 L31.9226218,6.47350119 Z" id="Shape"></path>
                                <path d="M11.7904234,30.5550038 C11.3921671,30.237262 11.0114935,29.8982186 10.6500802,29.5393678 C10.2346298,29.1234448 9.84602642,28.6817043 9.4866043,28.2167999 C9.385076,28.0897544 9.23439758,28.0114233 9.07178269,28.0011524 C8.90916779,27.9908815 8.7497771,28.0496283 8.63297596,28.1628838 L5.66808364,31.1185242 C5.091896,31.6929138 4.86686911,32.530105 5.07776842,33.3147358 C5.28866772,34.0993666 5.9034526,34.7122331 6.69053953,34.9224743 C7.47762646,35.1327155 8.31743822,34.9083908 8.89362584,34.3340011 L11.8360371,31.4004468 C11.9486772,31.2852777 12.0078315,31.1283738 11.9991658,30.9677561 C11.9905001,30.8071385 11.9148051,30.6574647 11.7904234,30.5550038 L11.7904234,30.5550038 Z M8.08789191,33.5298071 C7.63663141,33.9593227 6.92638131,33.9593227 6.47512081,33.5298071 C6.03063191,33.0854853 6.03063191,32.3663904 6.47512081,31.9220686 L8.99169535,29.4136719 C9.26961328,29.7430146 9.55502489,30.0541689 9.84467207,30.3429122 C10.0805602,30.5780643 10.3294808,30.8096436 10.5898049,31.0353765 L8.08789191,33.5298071 Z" id="Shape"></path>
                                <path d="M37.7330807,18 L33.5658352,18 C33.4038215,18.0019983 33.2503157,18.0643302 33.1432216,18.1716047 C33.0361275,18.2788792 32.9854271,18.4210974 33.0036392,18.5631429 C33.1459095,19.5192856 33.1560228,20.4871343 33.0337569,21.4454286 C33.0183499,21.5862468 33.0704666,21.7263247 33.1774687,21.8316936 C33.2844708,21.9370624 33.4365853,21.9980983 33.5969244,22 L37.7330807,22 C38.9850656,22 40,21.1045695 40,20 C40,18.8954305 38.9850656,18 37.7330807,18 Z M37.7330807,21 L34.2164411,21 C34.239758,20.6985714 34.2517403,20.4 34.2517403,20.1071429 C34.2517403,19.7471429 34.2329572,19.3765714 34.1960388,19 L37.7330807,19 C38.3590732,19 38.8665403,19.4477153 38.8665403,20 C38.8665403,20.5522847 38.3590732,21 37.7330807,21 Z" id="Shape"></path>
                                <path d="M6.82473118,21.8337143 C6.93238313,21.7279526 6.98385362,21.586728 6.96624518,21.4454286 C6.84398489,20.4871343 6.85409768,19.5192856 6.99636143,18.5631429 C7.01457774,18.4210486 6.96383722,18.2787843 6.85667663,18.1715001 C6.74951603,18.0642158 6.59593061,18.0019184 6.43386756,18 L2.26681456,18 C1.01488743,18 0,18.8954305 0,20 C0,21.1045695 1.01488743,22 2.26681456,22 L6.40375131,22 C6.56447937,21.9998507 6.7175485,21.9393889 6.82473118,21.8337143 Z M5.78329176,21 L2.26681456,21 C1.64085098,21 1.13340723,20.5522847 1.13340723,20 C1.13340723,19.4477153 1.64085098,19 2.26681456,19 L5.80369309,19 C5.76677639,19.3765714 5.74799421,19.7471429 5.74799421,20.1071429 C5.74799421,20.4 5.75997595,20.6985714 5.78329176,21 Z" id="Shape"></path>
                                <path d="M31.3672514,28.163216 C31.2505308,28.0497579 31.0910737,27.9908751 30.9283732,28.0011512 C30.7656726,28.0114273 30.6149457,28.0899012 30.5135233,28.2171371 C30.1540592,28.6820852 29.7654104,29.1238672 29.3499115,29.5398292 C28.988456,29.8987138 28.6077379,30.237789 28.2094351,30.5555606 C28.0852633,30.657924 28.0096474,30.8073534 28.0008602,30.9677386 C27.9920731,31.1281238 28.0509142,31.2848735 28.1631644,31.4001086 L31.1059193,34.3339385 C31.6821743,34.9083821 32.5220841,35.1327279 33.309263,34.922467 C34.0964419,34.712206 34.7112986,34.099282 34.9222225,33.3145775 C35.1331464,32.5298729 34.9080932,31.6926031 34.3318383,31.1181595 L31.3672514,28.163216 Z M33.5260103,33.5303186 C33.0747637,33.9600403 32.3642973,33.9600403 31.9130508,33.5303186 L29.4108456,31.0359785 C29.6715259,30.8086002 29.9201497,30.5782985 30.1560654,30.3434491 C30.4460723,30.0543539 30.7315172,29.7431704 31.0091418,29.4141215 L33.5260103,31.9227539 C33.7399162,32.1359658 33.8600892,32.4251562 33.8600892,32.7266987 C33.8600892,33.0282412 33.7399162,33.3174316 33.5260103,33.5306434 L33.5260103,33.5303186 Z" id="Shape"></path>
                                <path d="M8.60042943,11.8360872 C8.71542259,11.948787 8.87226775,12.0079369 9.03279549,11.9991423 C9.19332323,11.9903477 9.34281368,11.9144152 9.44488725,11.7898234 C9.76282998,11.3916564 10.1019729,11.0110004 10.460835,10.6495175 C10.876737,10.2341651 11.3184733,9.84568184 11.7833858,9.48640549 C11.9103844,9.38483201 11.9886526,9.23413294 11.9988614,9.07152478 C12.0090702,8.90891662 11.950268,8.7495584 11.8369764,8.63280508 L8.88137405,5.6680098 C7.99345604,4.77733007 6.55385651,4.77733007 5.66593851,5.6680098 C4.7780205,6.55868953 4.7780205,8.0027667 5.66593851,8.89344643 L8.60042943,11.8360872 Z M6.47142135,6.47469476 C6.68461044,6.26082076 6.97376995,6.14066576 7.27528024,6.14066576 C7.57679052,6.14066576 7.86595003,6.26082076 8.07913912,6.47469476 L10.5871788,8.99053533 C10.2581651,9.26779256 9.95123715,9.54993681 9.65827525,9.84413573 C9.42280143,10.0803419 9.1915499,10.3295802 8.96549504,10.5892442 L6.47142135,8.08741307 C6.25821051,7.87356089 6.13842807,7.583502 6.13842807,7.28105391 C6.13842807,6.97860583 6.25821051,6.68854694 6.47142135,6.47469476 L6.47142135,6.47469476 Z" id="Shape"></path>
                                <path d="M31,20.4996059 C30.9984586,14.9437743 27.0259567,10.1832158 21.5603831,9.18737754 C16.0948095,8.19153927 10.6987029,11.2451189 8.73794028,16.4434148 L8.73794028,16.4434148 C7.75401991,19.0578125 7.75401991,21.9407648 8.73794028,24.5551625 L8.73794028,24.5551625 C10.6980519,29.7541134 16.0943532,32.8084403 21.5603311,31.8126842 C27.0263091,30.816928 30.9989924,26.0558207 31,20.4996059 Z M9.12593137,21.0548139 L18.9446757,21.0548139 L18.9446757,23.8045212 L9.64938624,23.8045212 C9.35096102,22.9159477 9.1748598,21.9908884 9.12593137,21.0548139 L9.12593137,21.0548139 Z M9.64970349,17.1946906 L18.944993,17.1946906 L18.944993,19.9443979 L9.12593137,19.9443979 C9.17455213,19.0083676 9.35033296,18.0833093 9.6484345,17.1946906 L9.64970349,17.1946906 Z M29.8896412,20.4996059 C29.8822445,26.0191484 25.5660418,30.5722806 20.0550346,30.8740641 L20.0550346,10.1251477 C25.5660418,10.4269312 29.8822445,14.9800634 29.8896412,20.4996059 Z M18.9446757,10.1251477 L18.9446757,12.2257375 L13.2145898,12.2257375 C14.8683756,10.9623792 16.8662322,10.2299858 18.9446757,10.1251477 Z M11.9760638,13.3348845 L18.9446757,13.3348845 L18.9446757,16.0845918 L10.0935298,16.0845918 C10.5679066,15.072065 11.2037091,14.1433855 11.9760638,13.3348845 L11.9760638,13.3348845 Z M18.9446757,24.9149373 L18.9446757,27.6646446 L11.9760638,27.6646446 C11.2035306,26.8562203 10.5676123,25.9275282 10.0932125,24.9149373 L18.9446757,24.9149373 Z M18.9446757,28.7750606 L18.9446757,30.8740641 C16.8662322,30.769226 14.8683756,30.0368326 13.2145898,28.7734743 L18.9446757,28.7750606 Z" id="Shape"></path>
                            </g>
                        </g>
                    </g>
                </g>
            </g>
        </g>
    </g>
</svg>