<?xml version="1.0" encoding="UTF-8"?>
<svg width="84px" height="84px" viewBox="0 0 84 84" version="1.1" xmlns="http://www.w3.org/2000/svg" xmlns:xlink="http://www.w3.org/1999/xlink">
    <title>icon-expert-advice</title>
    <defs>
        <polygon id="path-1" points="0 52.411 44.029 52.411 44.029 0 0 0"></polygon>
    </defs>
    <g id="✅----READY-FOR-DEVELOPMENT" stroke="none" stroke-width="1" fill="none" fill-rule="evenodd">
        <g id="Special-Offers" transform="translate(-177.000000, -1365.000000)">
            <g id="Group" transform="translate(71.000000, 1236.000000)">
                <g id="Group-3-Copy" transform="translate(0.000000, 119.000000)">
                    <g id="Select-Dates-2-Copy-2" transform="translate(106.000000, 0.000000)">
                        <g id="icon-expert-advice" transform="translate(0.000000, 10.000000)">
                            <circle id="Oval" fill-opacity="0.183948864" fill="#52BFC0" cx="42" cy="42" r="42"></circle>
                            <g id="Group-20" transform="translate(19.000000, 13.000000)">
                                <path d="M36.5757,42.912 C36.5367,42.971 36.4467,43.068 36.2827,43.068 L33.5047,43.068 L33.5047,45.935 C32.6147,46.045 30.8597,46.106 29.4957,45.177 L28.6507,46.416 C29.9207,47.282 31.3977,47.494 32.5417,47.494 C32.9027,47.494 33.2267,47.472 33.5047,47.444 L33.5047,48.352 C33.5047,49.763 32.3567,50.911 30.9467,50.911 L13.3647,50.911 L13.3647,37.384 C17.5367,37.063 20.8427,33.63 20.9637,29.406 L31.1827,29.254 L36.6097,42.582 C36.6717,42.734 36.6147,42.854 36.5757,42.912 L36.5757,42.912 Z M19.4627,29.428 C19.4497,29.768 19.4157,30.102 19.3537,30.427 L13.3647,30.427 L13.3647,29.519 L19.4627,29.428 Z M18.0727,33.272 L13.3647,33.272 L13.3647,31.927 L18.8797,31.927 C18.6627,32.408 18.3907,32.858 18.0727,33.272 L18.0727,33.272 Z M13.3647,34.772 L16.4827,34.772 C15.5747,35.382 14.5107,35.776 13.3647,35.884 L13.3647,34.772 Z M32.1987,27.771 C32.7607,27.33 33.2177,26.837 33.5267,26.295 C34.2677,25 34.1897,23.475 33.3277,22.412 C32.8497,21.821 32.1447,21.434 31.3997,21.285 C31.4867,21.067 31.5507,20.838 31.5887,20.601 C31.7447,19.628 31.4497,18.688 30.7797,18.021 C30.1107,17.356 29.1107,17.005 28.0237,17.056 C27.4097,17.085 26.8347,17.242 26.3457,17.506 C25.5537,16.097 23.8097,15.15 22.0337,15.3 C20.2427,15.454 18.7257,16.694 18.2507,18.225 C16.5697,17.65 14.4977,17.977 13.2107,19.127 C11.5837,20.58 11.4027,23.091 12.8067,24.723 C13.0757,25.037 13.5507,25.073 13.8647,24.802 C14.1787,24.532 14.2147,24.058 13.9437,23.744 C13.0697,22.727 13.1887,21.158 14.2097,20.245 C15.2787,19.29 17.2137,19.165 18.4377,19.97 C18.6727,20.124 18.9757,20.134 19.2207,19.995 C19.4657,19.855 19.6117,19.59 19.5987,19.309 C19.5437,18.113 20.7647,16.914 22.1607,16.794 C23.5717,16.668 25.0537,17.656 25.2627,18.858 C25.3127,19.146 25.5257,19.378 25.8087,19.454 C26.0907,19.529 26.3917,19.433 26.5787,19.208 C26.8927,18.829 27.4597,18.584 28.0957,18.554 C28.7437,18.523 29.3557,18.722 29.7217,19.085 C30.0457,19.407 30.1857,19.873 30.1077,20.363 C30.0287,20.853 29.7427,21.281 29.3317,21.53 C29.2767,21.558 29.2217,21.588 29.1687,21.62 C28.8227,21.827 28.7027,22.271 28.8967,22.624 C29.0917,22.978 29.5307,23.117 29.8897,22.934 C29.9427,22.908 29.9937,22.88 30.0447,22.851 C30.6957,22.546 31.6897,22.772 32.1617,23.356 C32.6957,24.015 32.5777,24.933 32.2247,25.551 C31.7097,26.453 30.7107,27.04 29.9627,27.375 C29.7787,27.458 29.6477,27.606 29.5777,27.778 L11.8647,28.041 L11.8647,52.411 L30.9467,52.411 C33.1837,52.411 35.0047,50.59 35.0047,48.352 L35.0047,44.568 L36.2827,44.568 C36.9007,44.568 37.4757,44.262 37.8207,43.749 C38.1657,43.236 38.2317,42.588 37.9987,42.016 L32.1987,27.771 Z" id="Fill-1" fill="#52BFC0"></path>
                                <path d="M25.3569,37.1044 C24.4049,37.1044 23.6309,36.3304 23.6309,35.3784 L22.1309,35.3784 C22.1309,37.1574 23.5779,38.6044 25.3569,38.6044 C27.1359,38.6044 28.5829,37.1574 28.5829,35.3784 L27.0829,35.3784 C27.0829,36.3304 26.3089,37.1044 25.3569,37.1044" id="Fill-3" fill="#52BFC0"></path>
                                <path d="M18.5298,22.8719 C19.0058,22.6229 19.5358,22.5689 19.9808,22.7219 L20.4698,21.3039 C19.6378,21.0169 18.6778,21.1029 17.8368,21.5419 C16.9958,21.9799 16.3748,22.7169 16.1338,23.5639 L17.5758,23.9759 C17.7048,23.5229 18.0528,23.1209 18.5298,22.8719" id="Fill-5" fill="#52BFC0"></path>
                                <path d="M26.0723,23.0077 C26.5473,23.1107 26.9353,23.3927 27.1103,23.7607 L28.4663,23.1187 C28.0933,22.3327 27.3173,21.7427 26.3903,21.5417 C25.4663,21.3417 24.5143,21.5547 23.8483,22.1147 L24.8153,23.2627 C25.1283,22.9997 25.5983,22.9057 26.0723,23.0077" id="Fill-7" fill="#52BFC0"></path>
                                <mask id="mask-2" fill="white">
                                    <use xlink:href="#path-1"></use>
                                </mask>
                                <g id="Clip-10"></g>
                                <polygon id="Fill-9" fill="#52BFC0" mask="url(#mask-2)" points="22.131 12.838 23.631 12.838 23.631 5.135 22.131 5.135"></polygon>
                                <polygon id="Fill-11" fill="#52BFC0" mask="url(#mask-2)" points="22.131 2.751 23.631 2.751 23.631 0 22.131 0"></polygon>
                                <polygon id="Fill-12" fill="#52BFC0" mask="url(#mask-2)" points="32.9531 16.1688 33.8701 17.3558 39.9651 12.6458 39.0471 11.4598"></polygon>
                                <polygon id="Fill-13" fill="#52BFC0" mask="url(#mask-2)" points="43.1128 8.3197 40.9348 10.0017 41.8508 11.1887 44.0288 9.5067"></polygon>
                                <polygon id="Fill-14" fill="#52BFC0" mask="url(#mask-2)" points="4.0762 13.7557 10.1902 18.4407 11.1022 17.2497 4.9882 12.5657"></polygon>
                                <polygon id="Fill-15" fill="#52BFC0" mask="url(#mask-2)" points="0 10.6327 2.184 12.3057 3.096 11.1157 0.912 9.4427"></polygon>
                                <polygon id="Fill-16" fill="#52BFC0" mask="url(#mask-2)" points="14.7603 12.0814 16.1063 11.4184 14.0633 7.2724 12.7173 7.9354"></polygon>
                                <polygon id="Fill-17" fill="#52BFC0" mask="url(#mask-2)" points="13.4307 5.9901 12.7007 4.5101 11.3547 5.1731 12.0847 6.6531"></polygon>
                                <polygon id="Fill-18" fill="#52BFC0" mask="url(#mask-2)" points="31.7832 7.8802 30.4362 7.2192 28.4002 11.3672 29.7462 12.0282"></polygon>
                                <polygon id="Fill-19" fill="#52BFC0" mask="url(#mask-2)" points="33.1411 5.1141 31.7941 4.4531 31.0671 5.9351 32.4131 6.5961"></polygon>
                            </g>
                        </g>
                    </g>
                </g>
            </g>
        </g>
    </g>
</svg>