<?xml version="1.0" encoding="UTF-8"?>
<svg width="113px" height="105px" viewBox="0 0 113 105" version="1.1" xmlns="http://www.w3.org/2000/svg" xmlns:xlink="http://www.w3.org/1999/xlink">
    <title>icon-gear-arrives</title>
    <g id="✅----READY-FOR-DEVELOPMENT" stroke="none" stroke-width="1" fill="none" fill-rule="evenodd">
        <g id="How-it-Works" transform="translate(-515.000000, -1306.000000)" fill="#52BFC0">
            <g id="We've-made-renting-easy" transform="translate(125.000000, 1228.000000)">
                <g id="Group-3-Copy" transform="translate(0.000000, 78.000000)">
                    <g id="2.-Gear-Arrives" transform="translate(295.000000, 0.000000)">
                        <g id="icon-gear-arrives" transform="translate(95.000000, 0.000000)">
                            <path d="M39,15.3259018 L75,15.3259018 C85.4934102,15.3259018 94,23.8324916 94,34.3259018 L94,70.3259018 C94,80.8193121 85.4934102,89.3259018 75,89.3259018 L39,89.3259018 C28.5065898,89.3259018 20,80.8193121 20,70.3259018 L20,34.3259018 C20,23.8324916 28.5065898,15.3259018 39,15.3259018 Z" id="Rectangle" fill-opacity="0.183948864" transform="translate(57.000000, 52.325902) rotate(-45.000000) translate(-57.000000, -52.325902) "></path>
                            <g id="LENS" transform="translate(0.000000, 27.000000)" fill-rule="nonzero">
                                <path d="M16.3819894,26 L5.61801059,26 C5.27669277,26 5,26.2644955 5,26.5907672 L5,29.4092328 C5,29.7355045 5.27669277,30 5.61801059,30 L16.3819894,30 C16.7233072,30 17,29.7355045 17,29.4092328 L17,26.5907672 C17,26.2644955 16.7233072,26 16.3819894,26 L16.3819894,26 Z M15.7639788,28.8184657 L6.23602119,28.8184657 L6.23602119,27.1815343 L15.7639788,27.1815343 L15.7639788,28.8184657 Z" id="Shape"></path>
                                <path d="M21.4088953,26.0000001 L18.5907672,26.0000001 C18.2644955,26.0000001 18,26.2644956 18,26.5907673 L18,29.4092329 C18,29.7355045 18.2644955,30.0000001 18.5907672,30.0000001 L21.4092328,30.0000001 C21.7355045,30.0000001 22,29.7355045 22,29.4092329 L22,26.5907673 C22,26.4340276 21.9377123,26.2837125 21.826849,26.1729125 C21.7159856,26.0621124 21.5656349,25.9999106 21.4088953,26.0000001 L21.4088953,26.0000001 Z M20.8181281,28.8184658 L19.1815343,28.8184658 L19.1815343,27.1815344 L20.8184657,27.1815344 L20.8181281,28.8184658 Z" id="Shape"></path>
                                <path d="M26.993499,8.41300313 C26.9968349,8.39133264 26.999005,8.3695003 27,8.34759944 L27,0.628886073 C27,0.281564343 26.7170263,2.21391929e-06 26.3679606,2.21391929e-06 L19.7842773,2.21391929e-06 C19.6089478,2.21391929e-06 19.4415102,0.0725350863 19.3219856,0.200168486 L15.8930817,3.85918145 L11.1069183,3.85918145 L7.67982022,0.200168486 C7.55986784,0.0720770368 7.39167999,-0.000461944248 7.21572273,2.21391929e-06 L0.63203938,2.21391929e-06 C0.282973669,2.21391929e-06 0,0.281564343 0,0.628886073 L0,8.34759944 C0.000994967027,8.3695003 0.00316505121,8.39133264 0.00650097648,8.41300313 C0.00650097648,8.42773693 0.00830680329,8.44247072 0.0108349608,8.45720452 C0.0187636778,8.504323 0.0320933757,8.55038213 0.0505631504,8.5944804 L0.0505631504,8.5944804 L1.80654913,12.6660397 L1.80654913,32.7065206 C1.80654913,32.716942 1.80907729,32.7262854 1.80943845,32.7363475 C1.80979962,32.7464096 1.80654913,32.7561124 1.80654913,32.7661745 L1.80654913,36.3313942 C1.80655294,36.4120529 1.82212426,36.4919604 1.85241713,36.5667756 L3.25229407,40.0166406 L3.25229407,45.3711184 C3.25229407,45.7184401 3.53526774,46.0000022 3.88433345,46.0000022 L23.0105674,46.0000022 C23.3596331,46.0000022 23.6426068,45.7184401 23.6426068,45.3711184 L23.6426068,40.2279448 C23.6651336,40.1969977 23.6847208,40.1640343 23.7011156,40.1294799 L25.145777,36.5656976 C25.1760699,36.4908824 25.1916412,36.4109749 25.191645,36.3303162 L25.191645,32.7665338 C25.191645,32.7561124 25.1891169,32.746769 25.1887557,32.7367069 C25.1883946,32.7266448 25.191645,32.716942 25.191645,32.7068799 L25.191645,12.6671178 L26.947631,8.59555848 L26.947631,8.59555848 C26.9661038,8.55146126 26.9794336,8.50540178 26.9873592,8.4582826 C26.991332,8.44247072 26.9916932,8.42773693 26.993499,8.41300313 Z M1.26407876,1.2577677 L6.94232055,1.2577677 L10.3694187,4.91678066 C10.4889432,5.04441406 10.6563809,5.11691156 10.8317103,5.1169447 L16.1682897,5.1169447 C16.3436191,5.11691156 16.5110568,5.04441406 16.6305813,4.91678066 L20.0576794,1.2577677 L25.7359212,1.2577677 L25.7359212,7.71871782 L1.26407876,7.71871782 L1.26407876,1.2577677 Z M9.31806629,16.0857183 L9.31806629,21.2964517 L7.02900024,21.2964517 L7.02900024,16.0857183 L9.31806629,16.0857183 Z M12.8694053,16.0857183 L12.8694053,21.2964517 L10.5807004,21.2964517 L10.5807004,16.0857183 L12.8694053,16.0857183 Z M16.4207443,16.0857183 L16.4207443,21.2964517 L14.1320394,21.2964517 L14.1320394,16.0857183 L16.4207443,16.0857183 Z M19.9724444,16.0857183 L19.9724444,21.2964517 L17.6833784,21.2964517 L17.6833784,16.0857183 L19.9724444,16.0857183 Z M23.9300944,16.0857183 L23.9300944,21.2964517 L21.2350785,21.2964517 L21.2350785,16.0857183 L23.9300944,16.0857183 Z M3.07279488,22.554215 L23.9300944,22.554215 L23.9300944,32.0772796 L3.07135022,32.0772796 L3.07279488,22.554215 Z M5.76636614,21.2964517 L3.07135022,21.2964517 L3.07135022,16.0857183 L5.76492148,16.0857183 L5.76636614,21.2964517 Z M23.9300944,14.827955 L3.07135022,14.827955 L3.07135022,13.1666295 L23.9286498,13.1666295 L23.9300944,14.827955 Z M22.3785281,44.7404399 L4.51709516,44.7404399 L4.51709516,40.5229801 L22.3785281,40.5229801 L22.3785281,44.7404399 Z M23.9286498,36.2081334 L22.6884079,39.2648575 L4.31159207,39.2648575 L3.07135022,36.2081334 L3.07135022,33.3954155 L23.9286498,33.3954155 L23.9286498,36.2081334 Z M24.145349,11.9085069 L2.8557345,11.9085069 L1.59165574,8.9761217 L25.4090666,8.9761217 L24.145349,11.9085069 Z" id="Shape"></path>
                            </g>
                            <g id="SHUTTER" transform="translate(36.500000, 30.000000)" fill-rule="nonzero">
                                <path d="M29.2900935,23.8949431 C27.9986361,20.7571933 25.1342585,18.5443048 21.7720112,18.086813 L21.7720112,18.086813 C21.3503207,18.0296383 20.9252879,18.0006363 20.4997393,18 C15.5008292,18 11.3572387,21.8740571 11.0217258,26.8615219 C10.6862128,31.8489867 14.2735926,36.2430956 19.2274675,36.9125691 L19.2274675,36.9125691 C19.6491441,36.9699505 20.074177,36.9991589 20.4997393,37 C23.666668,36.9994485 26.6251651,35.4211812 28.3892659,32.7911802 C30.1533666,30.1611792 30.4911684,26.8251752 29.2900935,23.8949431 Z M21.9827177,19.2141463 C24.5299876,19.672777 26.7258325,21.2751039 27.9396563,23.5609756 L19.4743216,23.5609756 L19.886466,22.8473171 L21.9827177,19.2141463 Z M22.6846607,25.5660163 L23.8015288,27.5003089 L22.9763132,28.9297886 L22.1504796,30.3577236 L18.848999,30.3577236 L18.3151268,29.4339837 L17.1982588,27.5 L18.0234744,26.0705203 L18.848999,24.6422764 L22.1504796,24.6422764 L22.6846607,25.5660163 Z M20.4997393,19.0812674 C20.6010762,19.0812674 20.7036488,19.0834634 20.8068394,19.0874797 L16.574172,26.4186992 L14.6194212,23.0336098 L14.065467,22.0740325 C15.6595957,20.1707896 18.0170427,19.0742855 20.4997393,19.0812674 Z M12.0807065,27.5 C12.0757772,25.9171803 12.5220352,24.3657268 13.3672313,23.0274309 L16.1054891,27.7703252 L17.6002077,30.3577236 L12.580326,30.3577236 C12.2485609,29.441532 12.0794908,28.4744054 12.0807065,27.5 L12.0807065,27.5 Z M19.016761,35.7858537 C16.4695839,35.3270058 14.2738246,33.7247414 13.0598223,31.4390244 L21.525157,31.4390244 L21.1130126,32.1526829 L19.016761,35.7858537 Z M20.4997393,35.9187318 C20.3984025,35.9187318 20.2958298,35.9165366 20.1926392,35.9125203 L24.4253066,28.5813008 L26.3797485,31.9663902 L26.9337027,32.9259675 C25.3396432,34.8291272 22.9823279,35.9256227 20.4997393,35.9187318 Z M27.6322473,31.9725691 L24.8939895,27.2296748 L23.3992709,24.6422764 L28.4191527,24.6422764 C29.2973737,27.0770987 29.0072004,29.7805041 27.6322473,31.9734959 L27.6322473,31.9725691 Z" id="Shape"></path>
                                <path d="M38.203125,15.3124692 L26.5015625,15.3124692 C25.8888982,14.9632939 25.2491244,14.6639949 24.5884375,14.417471 L25.851875,13.1755985 C25.9564436,13.0727721 26.0153304,12.9322548 26.0153125,12.7855993 L26.0153125,8.38248318 L27.3175,8.38248318 C27.6195307,8.38248318 27.864375,8.1376394 27.864375,7.83560928 L27.864375,3.72218005 C27.8646416,3.57872089 27.8085261,3.44090158 27.708125,3.33843082 L24.5796875,0.163124706 C24.476865,0.0587779454 24.3364949,0 24.19,0 L15.8096875,0 C15.6631785,0 15.5227825,0.0587187128 15.42,0.163124706 L12.2928125,3.33843082 C12.1923828,3.4408828 12.1362623,3.57871435 12.1365625,3.72218005 L12.1365625,7.83560928 C12.1365625,8.1376394 12.3814068,8.38248318 12.6834375,8.38248318 L13.984375,8.38248318 L13.984375,12.7855993 C13.9843571,12.9322548 14.0432439,13.0727721 14.1478125,13.1755985 L15.41125,14.417471 C14.75067,14.6640103 14.1110013,14.963309 13.4984375,15.3124692 L9.566875,15.3124692 L9.566875,12.7343494 C9.566875,12.4323193 9.32203072,12.1874755 9.02,12.1874755 L4.375,12.1874755 C4.07296928,12.1874755 3.828125,12.4323193 3.828125,12.7343494 L3.828125,15.3124692 L1.796875,15.3124692 C0.804988027,15.3136746 0.0012053149,16.1174557 0,17.1093406 L0,36.4843017 C0.0012053149,37.4761867 0.804988027,38.2799678 1.796875,38.2811731 L13.4984375,38.2811731 C17.5299837,40.5729423 22.4703288,40.5729423 26.501875,38.2811731 L38.203125,38.2811731 C39.1950833,38.2801396 39.9989665,37.476258 40,36.4843017 L40,17.1093406 C39.9989665,16.1173844 39.1950833,15.3135027 38.203125,15.3124692 Z M13.2290625,7.28873538 L13.2290625,3.9449921 L16.03875,1.09374783 L23.96125,1.09374783 L26.7709375,3.9462421 L26.7709375,7.28998538 L13.2290625,7.28998538 L13.2290625,7.28873538 Z M15.078125,12.5562248 L15.078125,8.38248318 L24.921875,8.38248318 L24.921875,12.5562248 L23.4103125,14.0418468 C21.1758395,13.4457801 18.8241605,13.4457801 16.5896875,14.0418468 L15.078125,12.5562248 Z M4.921875,13.2812233 L8.473125,13.2812233 L8.473125,15.3124692 L4.921875,15.3124692 L4.921875,13.2812233 Z M1.09375,17.1093406 C1.09409459,16.721159 1.40869261,16.4065616 1.796875,16.406217 L11.859375,16.406217 C10.6052404,17.3935572 9.53798941,18.5974402 8.708125,19.9608974 L1.09375,19.9608974 L1.09375,17.1093406 Z M1.09375,21.0546452 L8.1128125,21.0546452 C7.86217956,21.5737212 7.64598312,22.1087306 7.465625,22.6562045 L1.09375,22.6562045 L1.09375,21.0546452 Z M1.796875,37.1874253 C1.40869261,37.1870807 1.09409459,36.8724833 1.09375,36.4843017 L1.09375,23.7499523 L7.15625,23.7499523 C5.96177566,28.7636626 7.79973764,34.0135767 11.860625,37.1874253 L1.796875,37.1874253 Z M24.1628125,38.1671108 C20.7450167,39.4206405 16.9442242,39.0664731 13.816875,37.2030502 C9.89707469,34.8770508 7.61659151,30.5459847 7.91691889,25.9979247 C8.21724627,21.4498647 11.0474411,17.4562766 15.2390625,15.665906 C16.4857941,15.1316695 17.8136751,14.8114532 19.166875,14.7187204 C25.1819126,14.303344 30.5859051,18.3771402 31.8423557,24.2741232 C33.0988063,30.1711061 29.8247534,36.0938972 24.1628125,38.1664858 L24.1628125,38.1671108 Z M38.90625,36.4843017 C38.9057336,36.872412 38.5912361,37.1869088 38.203125,37.1874253 L28.140625,37.1874253 C32.2010503,34.013274 34.0385053,28.7634131 32.84375,23.7499523 L38.90625,23.7499523 L38.90625,36.4843017 Z M38.90625,22.6562045 L32.534375,22.6562045 C32.3540169,22.1087306 32.1378204,21.5737212 31.8871875,21.0546452 L38.90625,21.0546452 L38.90625,22.6562045 Z M38.90625,19.9608974 L31.291875,19.9608974 C30.4618677,18.5973557 29.3943957,17.3934622 28.14,16.406217 L38.2025,16.406217 C38.5906111,16.4067335 38.9051086,16.7212303 38.905625,17.1093406 L38.90625,19.9608974 Z" id="Shape"></path>
                                <path d="M26.000001,6.45441782 L26.000001,5.42657725 C26.0002778,5.28337512 25.9409651,5.14580274 25.8348434,5.04351557 L23.8721689,3.16283247 C23.7634878,3.05867267 23.6151199,3.00000003 23.4602781,3.00000003 L16.5383988,3.00000003 C16.3835421,2.99994853 16.2351467,3.05861354 16.126508,3.16283247 L14.1651547,5.04351557 C14.059033,5.14580274 13.9997202,5.28337512 14.000001,5.42657725 L14.000001,6.45410588 C14.000001,6.75559486 14.2587968,7.00000003 14.5780364,7.00000003 L25.4219616,7.00000003 C25.7410723,7.00000003 25.9998137,6.75578497 26.000001,6.45441782 L26.000001,6.45441782 Z M24.8439272,5.90852374 L15.1547496,5.90852374 L15.1547496,5.65148561 L16.7801823,4.09178823 L23.2181642,4.09178823 L24.8439272,5.65148561 L24.8439272,5.90852374 Z" id="Shape"></path>
                                <path d="M16.5568182,11 L22.4431818,11 C22.750704,11 23,10.7761424 23,10.5 C23,10.2238576 22.750704,10 22.4431818,10 L16.5568182,10 C16.249296,10 16,10.2238576 16,10.5 C16,10.7761424 16.249296,11 16.5568182,11 Z" id="Path"></path>
                            </g>
                            <g id="SOFTBOX" transform="translate(96.000000, 50.000000) scale(-1, 1) translate(-96.000000, -50.000000) translate(79.000000, 27.000000)" fill-rule="nonzero">
                                <path d="M33.9007211,45.0296871 L26.9117543,34.1334374 L26.9117543,31.265625 C26.9117543,30.9182897 26.6342564,30.6367188 26.2919453,30.6367188 L22.8975168,30.6367188 L22.8975168,18.9347503 L23.4585325,18.9347503 C23.8008436,18.9347503 24.0783416,18.6531794 24.0783416,18.3058441 L24.0783416,9.99529747 C24.0783416,9.64796215 23.8008436,9.36639124 23.4585325,9.36639124 L18.1249872,9.36639124 L15.3418675,8.45789126 L15.3418675,6.95714131 C15.3417923,6.77639108 15.2651636,6.60439104 15.1314866,6.48492257 L13.3078313,4.85695387 C9.80158222,1.72578351 5.29061442,-0.00100715609 0.61980904,4.40706572e-07 C0.455425462,4.40706572e-07 0.297774607,0.0662604553 0.181537865,0.184203252 C0.0653011221,0.30214605 0,0.46211081 0,0.628907114 L0,27.6718751 C0,28.0192104 0.277497959,28.3007813 0.61980904,28.3007813 C5.29061442,28.3017894 9.80158222,26.5749987 13.3078313,23.4438283 L15.1314866,21.8158596 C15.2651636,21.6963912 15.3417923,21.5243911 15.3418675,21.3436409 L15.3418675,19.8428909 L18.1249872,18.934391 L18.5886044,18.934391 L18.5886044,30.6367188 L15.1941759,30.6367188 C14.8518648,30.6367188 14.5743668,30.9182897 14.5743668,31.265625 L14.5743668,34.1334374 L7.58575429,45.0296871 C7.46261381,45.2229866 7.45337695,45.469101 7.56167245,45.6713433 C7.66996796,45.8735857 7.87849438,46.0000004 8.10533136,46.0000004 L11.1749799,46.0000004 C11.3849735,46.0000004 11.5805058,45.8914105 11.694557,45.7124996 L18.5886044,34.9671874 L18.5886044,45.3710933 C18.5886044,45.7184286 18.8661023,46.0000004 19.2084134,46.0000004 L22.2777078,46.0000004 C22.6200189,46.0000004 22.8975168,45.7184286 22.8975168,45.3710933 L22.8975168,34.9671874 L29.7919184,45.7124996 C29.9059696,45.8914105 30.1015019,46.0000004 30.3114955,46.0000004 L33.381144,46.0000004 C33.607981,46.0000004 33.8165074,45.8735857 33.9248029,45.6713433 C34.0330984,45.469101 34.0238615,45.2229866 33.9007211,45.0296871 L33.9007211,45.0296871 Z M22.8387235,17.6769379 L18.6473977,17.6769379 L18.6473977,10.6242037 L22.8387235,10.6242037 L22.8387235,17.6769379 Z M14.1022494,21.0593753 L12.4886209,22.4993909 C9.36883302,25.2855639 5.39323806,26.8875338 1.23961808,27.0321876 L1.23961808,1.2685946 C5.39336097,1.41316601 9.36909416,3.01514117 12.4889751,5.80139134 L14.1026036,7.24140692 L14.1022494,21.0593753 Z M15.3418675,9.7793131 L17.4077796,10.4535006 L17.4077796,17.8472816 L15.3418675,18.5214691 L15.3418675,9.7793131 Z M19.8282224,18.9347503 L21.6578987,18.9347503 L21.6578987,30.6367188 L19.8282224,30.6367188 L19.8282224,18.9347503 Z M15.8139849,31.8945312 L25.6721362,31.8945312 L25.6721362,33.6914062 L15.8139849,33.6914062 L15.8139849,31.8945312 Z M10.8378038,44.7421871 L9.24755087,44.7421871 L15.5306437,34.9492186 L17.1208966,34.9492186 L10.8378038,44.7421871 Z M21.6571904,44.7421871 L19.8282224,44.7421871 L19.8282224,34.9492186 L21.6578987,34.9492186 L21.6571904,44.7421871 Z M30.6469007,44.7421871 L24.3655788,34.9492186 L25.9558317,34.9492186 L32.237862,44.7421871 L30.6469007,44.7421871 Z" id="Shape"></path>
                            </g>
                        </g>
                    </g>
                </g>
            </g>
        </g>
    </g>
</svg>