<?xml version="1.0" encoding="UTF-8"?>
<svg width="84px" height="84px" viewBox="0 0 84 84" version="1.1" xmlns="http://www.w3.org/2000/svg" xmlns:xlink="http://www.w3.org/1999/xlink">
    <title>icon-select-dates</title>
    <g id="✅----READY-FOR-DEVELOPMENT" stroke="none" stroke-width="1" fill="none" fill-rule="evenodd">
        <g id="How-it-Works" transform="translate(-235.000000, -1316.000000)" fill="#52BFC0">
            <g id="We've-made-renting-easy" transform="translate(125.000000, 1228.000000)">
                <g id="Group-3-Copy" transform="translate(0.000000, 78.000000)">
                    <g id="icon-select-dates" transform="translate(110.000000, 10.000000)">
                        <circle id="Oval" fill-opacity="0.183948864" cx="42" cy="42" r="42"></circle>
                        <g id="Artboard-1" transform="translate(22.000000, 24.325902)" fill-rule="nonzero">
                            <path d="M36.4285714,4.32 L33.5714286,4.32 L33.5714286,2.88 C33.5714286,1.28941992 32.2922421,0 30.7142857,0 C29.1363293,0 27.8571429,1.28941992 27.8571429,2.88 L27.8571429,4.32 L22.8571429,4.32 L22.8571429,2.88 C22.8571429,1.28941992 21.5779564,0 20,0 C18.4220436,0 17.1428571,1.28941992 17.1428571,2.88 L17.1428571,4.32 L12.1428571,4.32 L12.1428571,2.88 C12.1428571,1.28941992 10.8636707,0 9.28571429,0 C7.70775786,0 6.42857143,1.28941992 6.42857143,2.88 L6.42857143,4.32 L3.57142857,4.32 C1.59994574,4.32234082 0.00232224179,5.93274531 0,7.92 L0,32.4 C0.00232224179,34.3872547 1.59994574,35.9976592 3.57142857,36 L33.5714286,36 C33.7607896,35.9996365 33.9423239,35.9238019 34.0764286,35.78904 L39.7907143,30.02904 C39.9176919,29.8894479 39.9917952,29.7092086 40,29.52 L40,7.92 C39.9976778,5.93274531 38.4000543,4.32234082 36.4285714,4.32 Z M29.2857143,2.88 C29.2857143,2.08470996 29.9253075,1.44 30.7142857,1.44 C31.5032639,1.44 32.1428571,2.08470996 32.1428571,2.88 L32.1428571,4.32 L29.2857143,4.32 L29.2857143,2.88 Z M18.5714286,2.88 C18.5714286,2.08470996 19.2110218,1.44 20,1.44 C20.7889782,1.44 21.4285714,2.08470996 21.4285714,2.88 L21.4285714,4.32 L18.5714286,4.32 L18.5714286,2.88 Z M7.85714286,2.88 C7.85714286,2.08470996 8.49673607,1.44 9.28571429,1.44 C10.0746925,1.44 10.7142857,2.08470996 10.7142857,2.88 L10.7142857,4.32 L7.85714286,4.32 L7.85714286,2.88 Z M3.57142857,5.76 L6.42857143,5.76 L6.42857143,7.2 C6.42857143,8.79058008 7.70775786,10.08 9.28571429,10.08 C10.8636707,10.08 12.1428571,8.79058008 12.1428571,7.2 L10.7142857,7.2 C10.7142857,7.99529004 10.0746925,8.64 9.28571429,8.64 C8.49673607,8.64 7.85714286,7.99529004 7.85714286,7.2 L7.85714286,5.76 L17.1428571,5.76 L17.1428571,7.2 C17.1428571,8.79058008 18.4220436,10.08 20,10.08 C21.5779564,10.08 22.8571429,8.79058008 22.8571429,7.2 L21.4285714,7.2 C21.4285714,7.99529004 20.7889782,8.64 20,8.64 C19.2110218,8.64 18.5714286,7.99529004 18.5714286,7.2 L18.5714286,5.76 L27.8571429,5.76 L27.8571429,7.2 C27.8571429,8.79058008 29.1363293,10.08 30.7142857,10.08 C32.2922421,10.08 33.5714286,8.79058008 33.5714286,7.2 L32.1428571,7.2 C32.1428571,7.99529004 31.5032639,8.64 30.7142857,8.64 C29.9253075,8.64 29.2857143,7.99529004 29.2857143,7.2 L29.2857143,5.76 L36.4285714,5.76 C37.6115002,5.76130947 38.5701295,6.72760776 38.5714286,7.92 L38.5714286,11.52 L1.42857143,11.52 L1.42857143,7.92 C1.42987051,6.72760776 2.38849976,5.76130947 3.57142857,5.76 L3.57142857,5.76 Z M1.42857143,32.4 L1.42857143,12.96 L38.5714286,12.96 L38.5714286,28.8 L33.5714286,28.8 C33.1769395,28.8 32.8571429,29.122355 32.8571429,29.52 L32.8571429,34.56 L3.57142857,34.56 C2.38849976,34.5586905 1.42987051,33.5923922 1.42857143,32.4 L1.42857143,32.4 Z M34.2857143,33.541848 L34.2857143,30.24 L37.5613571,30.24 L34.2857143,33.541848 Z" id="Shape"></path>
                            <rect id="Rectangle" x="18" y="22" width="3" height="3"></rect>
                            <rect id="Rectangle" x="18" y="28" width="3" height="3"></rect>
                            <rect id="Rectangle" x="18" y="17" width="3" height="3"></rect>
                            <rect id="Rectangle" x="12" y="22" width="3" height="3"></rect>
                            <rect id="Rectangle" x="12" y="28" width="3" height="3"></rect>
                            <rect id="Rectangle" x="12" y="17" width="3" height="3"></rect>
                            <rect id="Rectangle" x="6" y="22" width="3" height="3"></rect>
                            <rect id="Rectangle" x="6" y="28" width="3" height="3"></rect>
                            <rect id="Rectangle" x="6" y="17" width="3" height="3"></rect>
                            <rect id="Rectangle" x="25" y="22" width="3" height="3"></rect>
                            <rect id="Rectangle" x="25" y="28" width="3" height="3"></rect>
                            <rect id="Rectangle" x="25" y="17" width="3" height="3"></rect>
                            <rect id="Rectangle" x="31" y="22" width="3" height="3"></rect>
                            <rect id="Rectangle" x="31" y="17" width="3" height="3"></rect>
                        </g>
                    </g>
                </g>
            </g>
        </g>
    </g>
</svg>