<?xml version="1.0" encoding="UTF-8"?>
<svg width="16px" height="22px" viewBox="0 0 16 22" version="1.1" xmlns="http://www.w3.org/2000/svg" xmlns:xlink="http://www.w3.org/1999/xlink">
    <title>Shape</title>
    <g id="Symbols" stroke="none" stroke-width="1" fill="none" fill-rule="evenodd">
        <g id="icon/sync" transform="translate(-4.000000, -2.000000)" fill="#3D3C3C">
            <path d="M12,5 L12,2 L8,6 L12,10 L12,7 C15.31,7 18,9.69 18,13 C18,14.01 17.75,14.97 17.3,15.8 L18.76,17.26 C19.54,16.03 20,14.57 20,13 C20,8.58 16.42,5 12,5 Z M12,19 C8.69,19 6,16.31 6,13 C6,11.99 6.25,11.03 6.7,10.2 L5.24,8.74 C4.46,9.97 4,11.43 4,13 C4,17.42 7.58,21 12,21 L12,24 L16,20 L12,16 L12,19 Z" id="Shape"></path>
        </g>
    </g>
</svg>