<?xml version="1.0" encoding="UTF-8"?>
<svg width="140px" height="58px" viewBox="0 0 140 58" version="1.1" xmlns="http://www.w3.org/2000/svg" xmlns:xlink="http://www.w3.org/1999/xlink">
    <title>disney</title>
    <defs>
        <filter id="filter-1">
            <feColorMatrix in="SourceGraphic" type="matrix" values="0 0 0 0 0.427734 0 0 0 0 0.418818 0 0 0 0 0.421047 0 0 0 1.000000 0"></feColorMatrix>
        </filter>
    </defs>
    <g id="Designs" stroke="none" stroke-width="1" fill="none" fill-rule="evenodd">
        <g id="Desktop-No-Promo" transform="translate(-445.000000, -2864.000000)">
            <g id="logos" transform="translate(225.000000, 2798.000000)" filter="url(#filter-1)">
                <g transform="translate(2.500000, 42.000000)">
                    <g id="disney" transform="translate(217.500000, 24.000000)" fill="#FFFFFF" fill-rule="nonzero">
                        <path d="M120.995141,25.3262194 C118.625704,25.8679891 112.389477,26.179917 112.389477,26.179917 L111.599665,28.6425063 C111.599665,28.6425063 114.709551,28.3798301 116.980262,28.6096718 C116.980262,28.6096718 117.720711,28.5275855 117.802983,29.4469521 C117.818123,30.0387647 117.796141,30.6309427 117.737165,31.2200164 C117.737165,31.2200164 117.687802,31.7782033 116.897989,31.9095414 C116.042359,32.0572968 110.184585,32.2707212 110.184585,32.2707212 L109.230228,35.4720873 C109.230228,35.4720873 108.884685,36.210864 109.674497,35.9974396 C110.414947,35.8004325 116.552446,34.6512242 117.358713,34.8153968 C118.214343,35.0288212 119.1687,36.1616123 118.888975,37.212317 C118.559886,38.4928634 112.438841,42.4001718 108.703686,42.1210783 C108.703686,42.1210783 106.74561,42.2524164 105.083713,39.6092373 C103.536997,37.0973962 105.676073,32.319973 105.676073,32.319973 C105.676073,32.319973 104.705262,30.0872254 105.412802,29.3484486 C105.412802,29.3484486 105.840617,28.9708515 107.058244,28.872348 L108.555597,25.7694855 C108.555597,25.7694855 106.844337,25.8844063 105.824162,24.6366944 C104.869806,23.4382343 104.803988,22.8964646 105.527983,22.5681194 C106.301341,22.1905224 113.426106,20.8935587 118.329524,21.0577313 C118.329524,21.0577313 120.040784,20.8935587 121.505228,23.8486658 C121.488774,23.8486658 122.212768,25.047126 120.995141,25.3262194 L120.995141,25.3262194 Z M102.549732,37.2451515 C101.924464,38.7227051 100.262567,40.2987623 98.2057643,39.3137265 C96.1489613,38.3286908 92.9238943,31.7125343 92.9238943,31.7125343 C92.9238943,31.7125343 91.6898126,29.249945 91.4594506,29.2991968 C91.4594506,29.2991968 91.1961799,28.8230962 91.0316356,31.5155271 C90.8670914,34.2079581 91.0645445,39.4450646 89.9950069,40.2659277 C88.9748327,41.0867908 87.7407509,40.7584456 87.0990284,39.7898271 C86.5231236,38.8376259 86.2763072,36.5720438 86.5889413,32.5990664 C86.967393,28.626089 87.8888407,24.3904355 89.0735592,23.0606373 C90.2582777,21.7308391 91.2126343,22.6994575 91.5746316,23.04422 C91.5746316,23.04422 93.1542563,24.4725218 95.7705096,28.6753408 L96.2312335,29.4469521 C96.2312335,29.4469521 98.6006704,33.4199295 98.8474868,33.4035123 C98.8474868,33.4035123 99.0449399,33.5841021 99.2094841,33.452764 C99.4563005,33.387095 99.3575739,32.1065486 99.3575739,32.1065486 C99.3575739,32.1065486 98.8639412,27.7888087 96.7084117,20.4667099 C96.7084117,20.4667099 96.3793233,19.5473432 96.6096852,18.6936456 C96.8400471,17.839948 97.6956771,18.2339623 97.6956771,18.2339623 C97.6956771,18.2339623 101.05238,19.908523 102.664913,25.3590539 C104.260992,30.8588367 103.175,35.767598 102.549732,37.2451515 Z M86.0623997,23.2412271 C85.7826745,23.7994141 85.6181303,24.6038599 84.2030499,24.8172843 C84.2030499,24.8172843 70.6610593,25.736651 70.0193368,26.6888521 C70.0193368,26.6888521 69.5421585,27.247039 70.2826076,27.4112117 C71.0230566,27.5753843 74.0835794,27.9693986 75.5644775,28.0514849 C77.1441022,28.0679021 82.4753354,28.1171539 84.3840485,30.4976569 C84.3840485,30.4976569 85.5194037,31.630448 85.4700405,34.1915408 C85.4206772,36.8183027 84.9599533,37.7376694 83.9397791,38.6898706 C82.8702416,39.5764027 73.6886732,43.6807182 67.7650808,37.3764896 C67.7650808,37.3764896 65.0336465,34.3392962 68.7029829,32.0408795 C68.7029829,32.0408795 71.3521451,30.4484051 78.0820043,32.319973 C78.0820043,32.319973 80.1223528,33.0587498 80.0236263,33.7975265 C79.9084453,34.5855551 78.3452751,35.4228355 76.0745646,35.3735837 C73.8696719,35.3079146 72.2571384,34.2572099 72.5697724,34.4213825 C72.8659521,34.5363033 70.2003355,33.1408361 69.3776143,34.0930373 C68.5548931,34.9631521 68.7523462,35.5049218 69.5586129,36.0466914 C71.6154159,37.212317 79.5629024,36.8018855 81.9323394,34.1751236 C81.9323394,34.1751236 82.8702416,33.1080015 81.4387067,32.2378867 C80.0071719,31.4170236 75.9100204,30.9245057 74.3139413,30.8424194 C72.7836799,30.7603331 67.0904494,30.8588367 66.2677282,29.3484486 C66.2677282,29.3484486 65.4450071,28.3305783 66.3500004,25.4411402 C67.3043569,22.4203641 73.9354896,21.2547385 76.7985593,20.9920623 C76.7985593,20.9920623 84.6802281,20.7129688 86.1282174,22.3218605 C86.2260556,22.6253022 86.2024711,22.9547406 86.0623997,23.2412271 L86.0623997,23.2412271 Z M63.6843837,40.9554527 C62.7300272,41.661395 60.7061331,41.349467 60.1302283,40.5614384 C59.5543234,39.8554962 59.3568704,37.0481444 59.4720513,32.6483182 C59.5872323,28.1992402 59.6859588,22.6830402 60.6403154,21.8129254 C61.6604896,20.9263932 62.2857577,21.6980045 62.6806639,22.3054432 C63.1084789,22.8964646 63.618566,23.5531551 63.733747,24.9486224 C63.848928,26.3440896 64.161562,33.6661884 64.161562,33.6661884 C64.161562,33.6661884 64.589377,40.2659277 63.6843837,40.9554527 L63.6843837,40.9554527 Z M65.7411867,17.3474301 C62.9603891,18.2667968 61.051676,17.9548688 59.4391425,17.2653438 C58.7316023,18.4966385 58.3202417,18.8742355 57.7772457,18.9563218 C56.9874334,19.0384081 56.2798932,17.7742789 56.1482578,17.3638474 C56.0166224,17.0519194 55.6381706,16.526567 56.0988945,15.2788551 C54.5192698,13.8669706 54.4040889,11.9625682 54.6673597,10.6820218 C55.0622658,9.20446823 57.7278824,3.58976466 65.8399132,2.93307419 C65.8399132,2.93307419 69.8054293,2.63756347 70.4800607,4.75539026 L70.5952416,4.75539026 C70.5952416,4.75539026 74.4455767,4.77180752 74.3633046,8.18659799 C74.3139413,11.6178057 70.0851545,15.8862938 65.7411867,17.3474301 L65.7411867,17.3474301 Z M58.1721519,9.74623787 C57.3494307,11.0596188 57.3165218,11.8476474 57.6949736,12.389417 C58.6328757,10.9611153 60.3441358,8.71195037 62.8616626,7.00455514 C60.9200406,7.16872776 59.2910527,8.00600811 58.1721519,9.74623787 Z M69.3776143,7.54632478 C66.8271786,7.9239218 62.878117,11.3387123 61.0023127,14.1296468 C63.8818368,14.6549992 68.9662537,14.457992 71.2205097,9.87757597 C71.2040553,9.87757597 72.2900472,7.03738966 69.3776143,7.54632478 L69.3776143,7.54632478 Z M138.617828,33.9945337 C137.087567,36.6541301 132.792963,42.2031646 127.066823,40.9062009 C125.174564,45.486617 123.59494,50.0998676 122.689946,57.0279521 C122.689946,57.0279521 122.492493,58.3741676 121.373593,57.898067 C120.271146,57.5040527 118.428251,55.6653194 118.066253,53.1206438 C117.671347,49.7715224 119.1687,44.107567 122.212768,37.6227486 C121.324229,36.1780295 120.715416,34.1094545 121.241957,31.1707646 C121.241957,31.1707646 122.015315,25.7202337 127.494638,20.7950551 C127.494638,20.7950551 128.152815,20.220451 128.531267,20.4010408 C128.959082,20.5816307 128.761629,22.354695 128.416086,23.2083926 C128.070543,24.0620902 125.618834,28.2977438 125.618834,28.2977438 C125.618834,28.2977438 124.088572,31.1543474 124.516387,33.4035123 C127.395912,28.9872688 133.944772,20.0726956 138.009015,22.8800474 C139.374732,23.8486658 140,25.9664926 140,28.248492 C139.983546,30.2678152 139.506367,32.4020593 138.617828,33.9945337 L138.617828,33.9945337 Z M137.43311,27.0007801 C137.43311,27.0007801 137.202748,25.2441331 135.491488,27.18137 C134.01059,28.8066789 131.344973,31.8767069 129.189444,36.0302742 C131.4437,35.7840152 133.615684,34.5527206 134.273861,33.9288646 C135.343398,32.9766635 137.828016,30.4155706 137.43311,27.0007801 L137.43311,27.0007801 Z M57.5468838,29.2335277 C57.2342497,33.2065051 55.7039883,39.8883307 44.8605232,43.1882003 C37.702849,45.3388617 30.9400809,44.3045742 27.2542901,43.3687902 C27.172018,44.8299265 27.0074737,45.4537825 26.7771118,45.7000414 C26.4644778,46.0119694 24.1279496,47.3581849 22.8445046,45.4537825 C22.2685998,44.5508331 21.9724201,42.9091069 21.8078759,41.4479706 C13.5148464,37.6391658 9.69742019,32.1558004 9.54933038,31.9095414 C9.36833172,31.7289515 7.47607302,29.7588801 9.36833172,27.3455426 C11.1454095,25.1620468 16.953821,22.978551 22.1863276,22.0920188 C22.3673263,17.6265236 22.8938678,14.2609849 23.5191359,12.7177623 C24.2760394,10.9282807 25.230396,12.5371724 26.0531172,13.7520498 C26.744203,14.6549992 27.1555635,18.5458902 27.1884724,21.6487527 C30.6109925,21.4845801 32.6348866,21.7308391 36.4523128,22.4203641 C41.4215487,23.3233135 44.7453423,25.8515718 44.4491627,28.7245926 C44.2352551,31.5483617 41.6354562,32.7139873 40.6481908,32.7960736 C39.6115621,32.8781599 37.9990286,32.1393831 37.9990286,32.1393831 C36.8965823,31.6140307 37.9167565,31.1543474 39.2495648,30.5797432 C40.6975541,29.873801 40.3684656,29.1514414 40.3684656,29.1514414 C39.8254696,27.5753843 33.3753356,26.4754277 26.9581105,26.4754277 C26.9252016,30.005139 27.1062003,35.8661015 27.1884724,39.280892 C31.68053,40.1345896 35.0372324,39.970417 35.0372324,39.970417 C35.0372324,39.970417 51.4258382,39.5107337 51.9194709,29.0693551 C52.4131036,18.6279766 35.5802284,8.58061228 23.1242298,5.39566347 C10.6846856,2.14504562 3.64219234,4.41062776 3.03337867,4.72255573 C2.37520173,5.05090097 2.9840154,5.14940454 2.9840154,5.14940454 C3.61066935,5.26350681 4.22699552,5.42822133 4.82691083,5.6419224 C6.0609926,6.03593669 5.10663603,6.6762099 5.10663603,6.6762099 C2.9840154,7.34931764 0.598123988,6.92246883 0.13740013,5.95385038 C-0.323323728,4.98523192 0.450034177,4.11511704 1.33857305,2.86740514 C2.22711192,1.55402419 3.1979229,1.60327597 3.1979229,1.60327597 C18.5828089,-3.71591688 37.3243973,5.90459859 37.3243973,5.90459859 C54.8812672,14.7863373 57.8759722,25.1948813 57.5468838,29.2335277 Z M11.1125006,28.6917581 C9.36833172,29.5454557 10.5695046,30.7767504 10.5695046,30.7767504 C13.8439349,34.2900444 17.8752687,36.4899575 21.7091494,37.8525902 C22.1534188,31.7946206 22.0876011,29.6603765 22.1369644,26.6067658 C16.1475542,27.0171974 12.6921253,27.9693986 11.1125006,28.6917581 Z" id="Shape"></path>
                    </g>
                </g>
            </g>
        </g>
    </g>
</svg>