<?xml version="1.0" encoding="UTF-8"?>
<svg width="152px" height="41px" viewBox="0 0 152 41" version="1.1" xmlns="http://www.w3.org/2000/svg" xmlns:xlink="http://www.w3.org/1999/xlink">
    <title>netflix</title>
    <defs>
        <filter id="filter-1">
            <feColorMatrix in="SourceGraphic" type="matrix" values="0 0 0 0 0.427734 0 0 0 0 0.418818 0 0 0 0 0.421047 0 0 0 1.000000 0"></feColorMatrix>
        </filter>
    </defs>
    <g id="Designs" stroke="none" stroke-width="1" fill="none" fill-rule="evenodd">
        <g id="Desktop-No-Promo" transform="translate(-228.000000, -2868.000000)">
            <g id="logos" transform="translate(225.000000, 2798.000000)" filter="url(#filter-1)">
                <g transform="translate(2.500000, 42.000000)">
                    <g id="netflix" transform="translate(0.500000, 28.000000)" fill="#000000" fill-rule="nonzero">
                        <path d="M143.870231,19.5168557 L152,41 C149.603683,40.657981 147.208647,40.2301371 144.76869,39.8458462 L140.189116,27.9738183 L135.482475,38.8646234 C133.172152,38.4803324 130.902901,38.3509545 128.592578,38.0524885 L136.851983,19.2606617 L129.362686,0 L136.296222,0 L140.489458,10.7614272 L144.983036,0 L152,0 L143.870231,19.5168557 Z M123.885937,0 L117.595441,0 L117.595441,37.2416347 C119.649061,37.3697317 121.788677,37.4542756 123.885937,37.7104696 L123.885937,0 Z M112.159764,36.8137907 C106.426312,36.4294999 100.691577,36.0887618 94.8297745,35.9593839 L94.8297745,0 L101.247338,0 L101.247338,29.8952729 C104.928453,29.9810979 108.608284,30.2795638 112.159764,30.4499329 L112.159764,36.8137907 Z M87.9822339,14.5633456 L87.9822339,20.9694754 L79.2107075,20.9694754 L79.2107075,35.532821 L72.8765719,35.532821 L72.8765719,0 L90.8496013,0 L90.8496013,6.40612991 L79.2107075,6.40612991 L79.2107075,14.5633456 L87.9822339,14.5633456 Z M62.0924976,6.40612991 L62.0924976,35.8748398 C59.9528818,35.8748398 57.7709101,35.8748398 55.6736502,35.9593839 L55.6736502,6.40612991 L49.0404562,6.40612991 L49.0404562,0 L68.7680475,0 L68.7680475,6.40612991 L62.0924976,6.40612991 Z M42.1082037,21.3102134 C39.2844755,21.3102134 35.9460588,21.3102134 33.5497404,21.4395914 L33.5497404,30.9636017 C37.315567,30.7061267 41.0813934,30.4076608 44.8895759,30.2795638 L44.8895759,36.4294999 L27.1308931,37.8398475 L27.1308931,0 L44.8895759,0 L44.8895759,6.40612991 L33.5497404,6.40612991 L33.5497404,15.0321804 C36.0320542,15.0321804 39.8402366,14.9040834 42.1082037,14.9040834 L42.1082037,21.3102134 Z M6.54719868,17.723498 L6.54719868,40.1020401 C4.23687568,40.3595151 2.18197172,40.657981 0,41 L0,0 L6.11978892,0 L14.4639055,23.276502 L14.4639055,0 L20.8827529,0 L20.8827529,38.3509545 C18.6147858,38.7365264 16.3044629,38.8646234 13.864505,39.2053614 L6.54719868,17.723498 Z" id="Fill-14"></path>
                    </g>
                </g>
            </g>
        </g>
    </g>
</svg>