<?xml version="1.0" encoding="UTF-8"?>
<svg width="171px" height="58px" viewBox="0 0 171 58" version="1.1" xmlns="http://www.w3.org/2000/svg" xmlns:xlink="http://www.w3.org/1999/xlink">
    <title>al-jazeera</title>
    <defs>
        <filter id="filter-1">
            <feColorMatrix in="SourceGraphic" type="matrix" values="0 0 0 0 0.427734 0 0 0 0 0.418818 0 0 0 0 0.421047 0 0 0 1.000000 0"></feColorMatrix>
        </filter>
    </defs>
    <g id="Designs" stroke="none" stroke-width="1" fill="none" fill-rule="evenodd">
        <g id="Desktop-No-Promo" transform="translate(-1046.000000, -2853.000000)">
            <g id="logos" transform="translate(225.000000, 2798.000000)" filter="url(#filter-1)">
                <g transform="translate(2.500000, 42.000000)">
                    <g id="al-jazeera" transform="translate(818.500000, 13.000000)">
                        <path d="M15.3588672,57.7996689 C13.6103041,57.2249951 11.9507915,55.5984309 10.7758292,53.3076474 C10.5039907,52.7775665 10.2815447,52.305025 10.2815447,52.2575551 C10.2815447,52.123057 11.1003048,51.6735311 11.1385208,51.7871713 C11.1565473,51.8411144 11.3880065,52.2309431 11.652995,52.6542166 C13.6427516,55.829667 16.3661838,56.178499 17.6565152,53.4238048 C18.0184858,52.6509801 18.1911789,51.9382119 18.3992038,50.3609158 C18.6970004,48.1017789 19.1563136,45.334498 19.3621754,44.5605944 C19.939021,42.3917222 21.1749126,40.6802876 24.2693285,37.7634045 C26.9621157,35.225202 28.2600182,33.2501654 28.4118007,31.458895 C28.4424456,31.0981954 28.4384798,30.8029469 28.403148,30.8029469 C28.3678162,30.8029469 28.0757881,31.0338234 27.7541967,31.3161256 C27.4326053,31.5987874 26.681264,32.1939596 26.0849499,32.6391699 C24.5566697,33.7802462 23.8954605,34.368226 23.4429972,34.9892908 C23.2270407,35.2856183 23.0219,35.5283622 22.9872892,35.5283622 C22.952318,35.5283622 22.7561905,35.0263318 22.5517708,34.4124593 C22.2583006,33.5339061 22.1786239,33.1667334 22.1768212,32.6841225 C22.1735765,31.9605658 22.3026456,31.6728692 23.0406474,30.7590732 C23.9985716,29.5726847 24.4903324,28.2528769 24.4910535,26.8651008 C24.4921351,25.3877792 23.8413812,24.1010565 21.9417566,21.8232193 C21.0952358,20.8083699 18.6432816,18.2018394 18.5351231,18.2018394 C18.4997913,18.2018394 18.4806833,18.7826268 18.4929412,19.4925179 C18.5437758,22.4417669 17.9759434,24.6929921 16.3647416,27.9306568 C15.3361539,29.9977563 15.1194763,30.4958309 14.7084738,31.7401183 C14.2754791,33.0520144 14.1391994,33.7744923 14.0815148,35.0626535 L14.0295987,36.2159569 L13.6488806,36.5885239 C13.4394136,36.7935076 13.2454493,36.9387944 13.2176886,36.9111036 C13.0958299,36.7891922 12.9876714,35.0288491 13.0334585,33.90935 C13.1178222,31.8483641 13.6056172,30.0038698 14.8036533,27.2150117 C17.0706564,21.9372191 17.6590389,19.9772866 17.5375408,18.1051015 C17.4870668,17.3293997 17.4167637,17.087375 16.6401854,15.0076888 C15.9782551,13.2343994 16.1653694,11.5035453 17.1932361,9.89028703 C17.4538982,9.48139836 17.4852641,9.37854685 17.40739,9.19046525 C17.356916,9.06891348 17.1561016,8.60859905 16.9606952,8.16734451 C16.3611364,6.81301316 16.2125986,6.10707783 16.2079118,4.59415377 C16.2035854,3.190914 16.3084992,2.60005728 16.7234675,1.69597097 C17.0832749,0.911278719 18.0833809,0 18.5841549,0 C18.9385544,0 18.8851962,0.149602189 18.3992038,0.515336387 C17.3666503,1.29319585 16.9971086,2.64321176 17.3504265,4.3492521 C17.717084,6.11966455 18.4467936,7.37258288 20.8644976,10.3826077 C26.5763502,17.4933868 29.4490411,21.6631882 31.701623,26.1134937 C33.1343632,28.9437082 33.7119298,30.4231875 34.3064413,32.7858951 C34.9186186,35.21765 35.1143856,37.2351218 34.9377266,39.291073 C34.5534033,43.7643943 32.7561688,46.8848226 29.6696845,48.4369453 C27.5486955,49.5039398 24.7654157,49.6837501 22.2705586,48.9148812 C21.3667137,48.6365348 21.3948349,48.6987492 21.6057441,47.4458308 C21.8148506,46.2026222 21.9655515,45.717494 22.1360815,45.7361943 C22.2024187,45.7437463 22.6318081,45.8171089 23.0900398,45.899462 C25.1180125,46.264477 27.3067809,45.8135127 28.9680961,44.6886193 C29.5045625,44.3250428 30.4830368,43.3810386 30.9556896,42.7714816 C31.7668787,41.7246259 32.4133062,40.3397268 32.7929427,38.8357933 C33.0727128,37.7278021 33.1790687,35.4654286 33.0067361,34.2891094 C32.8744222,33.3864616 32.4125852,31.8508815 31.8927031,30.5839379 C30.0705922,26.1447807 26.8950574,21.3895168 20.0305952,12.8197568 C19.7219828,12.4349627 19.1541505,11.6966615 18.7680245,11.1791674 C18.382259,10.6616733 18.0372332,10.2383998 18.0019015,10.2383998 C17.8836481,10.2383998 17.4870668,10.9144866 17.3374475,11.370126 C17.2314521,11.693425 17.2011677,12.0102507 17.2292889,12.4968175 C17.3053604,13.8061963 17.8580506,14.6232544 20.6283514,17.5203583 C22.3188694,19.2882534 23.2746304,20.4383202 24.1179065,21.719289 C25.6847633,24.1003373 26.2504325,26.4821048 25.7179319,28.4557029 C25.6656553,28.6495385 25.6396972,28.8250333 25.6606079,28.8458913 C25.7792217,28.9638469 27.4682977,27.4354592 27.9770033,26.7496626 C28.1496965,26.516988 28.3231107,26.3616319 28.3645715,26.4029883 C28.4709274,26.5090764 29.0218149,28.7311724 29.226595,29.8794411 C29.511052,31.4765164 29.6094763,32.6186715 29.5550365,33.7007701 C29.4969914,34.863064 29.3358352,35.433782 28.7420448,36.5784545 C28.137078,37.7454235 27.3345416,38.7250301 25.0091329,41.1352077 C22.7093218,43.5184137 21.8981327,44.5070109 21.6079073,45.2809145 C21.3184029,46.0533797 20.971935,47.9737539 20.7707602,49.9232575 C20.4754873,52.7869167 20.1935541,54.7720226 19.9812028,55.488387 C19.6639377,56.5568199 19.104037,57.2839729 18.2914058,57.6827922 C17.7754896,57.9363247 17.6121702,57.9719272 16.8683999,57.9942236 C16.1624852,58.0154413 15.9209311,57.9841543 15.3588672,57.7996689 L15.3588672,57.7996689 Z M24.1665779,54.1592291 C23.5024844,53.831255 23.022621,53.1130926 22.5171601,51.6907929 C22.3397801,51.1923587 22.300843,50.9819806 22.3715066,50.911495 C22.5229285,50.7600947 22.6923769,50.9546495 22.9032861,51.5217712 C23.1675535,52.2331009 23.4520104,52.69845 23.7105094,52.8433771 C23.9023105,52.9505441 23.9693688,52.9509037 24.1918149,52.8451752 C24.3991187,52.7462795 24.4553612,52.6581725 24.4769929,52.3949302 C24.5285485,51.7771019 24.8688873,52.0989624 25.1425285,53.0239067 C25.3350507,53.6744604 25.3224322,53.7920564 25.0267988,54.0865857 C24.7214312,54.391544 24.6493255,54.3976575 24.1665779,54.1592291 Z M17.1629517,51.8069504 L15.2157374,50.218506 L13.3528867,52.4909489 L15.300101,54.0793933 L17.1629517,51.8069504 Z M11.7236586,14.6300872 C11.7236586,15.5827223 12.514658,16.3915091 13.4891665,16.3915091 C13.9268481,16.3915091 14.3266742,16.2307587 14.6352865,15.9675163 L14.8656642,15.8035293 L14.8299719,16.4130863 C14.7845453,17.2143211 14.482783,17.8263955 13.7361285,18.6308669 C12.9289053,19.5004296 12.1429532,20.0639551 9.57995624,21.6088854 C6.07814315,23.7198586 4.8887597,24.5505823 3.62799162,25.7657405 C2.00741612,27.3272133 0.877159342,29.2195372 0.382153744,31.2021258 C-0.294197678,33.90935 -0.0775200636,36.5122843 1.07004208,39.5097224 C1.39812299,40.367058 1.40425198,40.4156068 1.4540049,41.8727897 C1.5855978,45.7448252 2.55938521,48.4088949 4.57365781,50.4073068 C5.59683763,51.4225159 6.53276955,51.9058461 7.7538795,52.0565271 C8.05924712,52.0939277 8.50522085,52.1093914 8.7464144,52.0892526 C11.6713819,51.8429125 12.9498159,49.4287791 13.5771355,42.966396 C13.6586149,42.1241645 13.7696577,41.3099833 13.8237369,41.1560657 C13.8904347,40.9676245 14.4680013,40.3807236 15.6000607,39.3486123 C17.382153,37.7245655 17.7383551,37.262453 17.7387157,36.5838488 C17.7387157,36.1645311 17.3803504,33.6622907 17.3082447,33.581376 C17.2765182,33.5457736 17.0739012,33.7590286 16.8586657,34.0542772 C16.4984977,34.5476767 15.3502145,35.6610622 13.8482529,36.9722391 C12.8636496,37.8317324 12.6797801,38.283416 12.3459307,40.6529564 C11.7640378,44.7828399 11.0253149,46.9599833 9.78545747,48.1977976 C8.6400585,49.3413912 6.7764868,49.6301666 5.31129908,48.8897077 C3.82231647,48.1370217 2.71982039,45.8804021 2.58606432,43.3166666 L2.53414822,42.3100884 L3.2112207,42.9419418 C4.11254189,43.781656 4.84549628,44.1477499 5.62928519,44.1477499 C6.36800804,44.1481095 6.61100423,44.0761854 6.99460653,43.7402997 C7.5588336,43.2461809 7.82526414,42.4546559 7.82526414,41.2682673 C7.82526414,38.8980077 6.55007492,36.0566449 5.15771394,35.3287727 C4.59601058,35.0349627 3.84755346,35.0633727 3.3100055,35.3971007 C2.7908445,35.7193208 2.27853353,36.426335 2.01318457,37.1908884 C1.90430497,37.5044777 1.77631736,37.7799471 1.72800655,37.8033224 C1.56612926,37.882439 1.41290466,36.8075328 1.41002043,35.5718763 C1.40785726,34.6641938 1.45544702,34.1161319 1.59100573,33.4555088 C2.09790876,30.9856342 3.07710411,29.2249315 5.01242097,27.2998822 C6.32149987,25.9973362 7.67312113,24.9713385 10.7011998,22.9819171 C13.0421112,21.4438196 14.0422172,20.6130959 14.59671,19.7496467 C14.8415088,19.3684488 14.8912618,19.3285309 14.9146961,19.4925179 C14.9983387,20.0765419 14.2913424,21.8854337 12.6668011,25.2460887 C11.3353694,27.999704 10.9185985,28.9616892 10.2487366,30.8083412 C9.40401834,33.1379638 8.88017047,35.2165711 8.57372126,37.4534115 C8.37759377,38.8854209 8.30801177,41.8379065 8.42842828,43.7183628 C8.53550524,45.3927565 8.90684957,48.0158295 9.05610836,48.1650721 C9.11631662,48.2247691 9.23925683,48.1568008 9.44007119,47.9518171 L9.7389493,47.6482972 L9.57995624,46.6855928 C8.99229482,43.1364966 9.21510142,39.3475335 10.2404444,35.4600343 C10.9654672,32.7107344 11.8354224,30.5192062 13.9005295,26.2523072 C15.7197562,22.4935522 16.0460345,21.2226529 15.9595076,18.2018394 C15.8874019,15.6956431 15.5542736,14.2327063 14.8847722,13.4900897 C14.5188358,13.084078 14.1316283,12.8719018 13.6207594,12.8719018 C12.3794599,12.8719018 11.7236586,13.6760136 11.7236586,14.6300872 L11.7236586,14.6300872 Z M17.6049596,47.8525618 L15.6581058,46.2641174 L13.7948947,48.5365602 L15.742109,50.1250046 L17.6049596,47.8525618 Z M17.7304235,46.0623702 C16.616751,44.996095 15.5066839,43.4367798 14.7019843,41.8076983 L14.3670534,41.130173 L14.7553425,40.7356692 C14.9687754,40.5188179 15.1876162,40.3411653 15.242056,40.3411653 C15.2964958,40.3411653 15.495147,40.5677263 15.6840639,40.8442746 C16.1066033,41.463901 17.5681857,42.982579 18.3775721,43.6432021 C18.9111543,44.0787027 18.9717231,44.1585385 18.9187254,44.3595664 C18.8859173,44.4836356 18.7669429,45.0331359 18.6540975,45.5801189 C18.5412521,46.1274615 18.4287672,46.595328 18.4038907,46.6197822 C18.3793748,46.6442364 18.0761703,46.3935808 17.7304235,46.0623702 L17.7304235,46.0623702 Z M29.592892,41.4243427 L27.3280521,40.3318152 L26.0622366,42.9433803 L28.3270765,44.0355482 L29.592892,41.4243427 Z M5.15482972,38.252129 C5.32463863,38.2564444 5.48687644,38.2988797 5.64010105,38.3776366 C5.95736611,38.541264 6.42280837,39.2367703 6.42172867,39.5482018 C6.42100573,39.6711921 6.30347344,39.973633 6.1610647,40.221052 C5.95916875,40.5720418 5.8016178,40.7205651 5.44289197,40.8989369 C4.83287779,41.2024568 4.10388921,41.2125261 3.48269864,40.9237508 C2.81067356,40.6112404 2.78759974,40.5533415 3.08503573,39.9254438 C3.58004133,38.8814651 4.41935162,38.2319902 5.15482972,38.252129 L5.15482972,38.252129 Z M22.1681685,36.6870599 L19.9036892,35.594892 L18.6378737,38.2060975 L20.902353,39.2982654 L22.1681685,36.6870599 Z M5.86074447,32.3877951 C5.54275836,32.0565845 5.45623152,31.6358283 5.55105051,30.8813442 C5.60585084,30.4487206 5.72410418,30.0844248 5.95051607,29.6553974 C6.52916427,28.5567563 8.35163572,26.9593214 8.35163572,27.5505378 C8.35163572,27.5850613 7.98137297,27.9932308 7.52854921,28.457501 C6.30527609,29.7118579 5.90436842,30.6321271 6.34024735,31.184864 C6.64489391,31.5710966 7.21128415,31.4599738 7.21128415,31.0136846 C7.21128415,30.7662656 7.50223063,30.4055661 7.63562616,30.4879192 C7.77190593,30.5717108 7.7639743,30.8619247 7.61255234,31.3646743 C7.27509769,32.4823753 6.42713471,32.9775729 5.86074447,32.3877951 L5.86074447,32.3877951 Z M18.0065883,31.1747946 C17.7834212,30.3742791 17.8515611,30.2645948 20.009324,27.9436031 C20.8962241,26.9891699 21.7344528,26.0559544 21.8718141,25.8693112 C22.1400473,25.5057348 22.1523053,25.5136464 22.2871429,26.1350709 C22.3477117,26.4141365 22.33293,26.5712907 22.2236899,26.8111577 C22.1454552,26.9826968 21.3508505,27.9173508 20.458182,28.887967 C19.5655135,29.8582235 18.6970004,30.8414263 18.528273,31.0726624 C18.3591852,31.3038985 18.1933421,31.4955763 18.1594524,31.4981258 C18.1255627,31.500611 18.0567018,31.3553242 18.0065883,31.1747946 L18.0065883,31.1747946 Z M12.9649581,17.6286041 C12.9649581,18.5945452 12.1678296,19.3896664 11.1994502,19.3896664 C10.2307101,19.3896664 9.43394221,18.5945452 9.43394221,17.6286041 C9.43394221,16.6626631 10.2307101,15.8675418 11.1994502,15.8675418 C12.1678296,15.8675418 12.9649581,16.6626631 12.9649581,17.6286041 Z" id="Shape" fill="#D4A10F" fill-rule="nonzero"></path>
                        <path d="M75.0936073,30 L75.0936073,46.3156927 C75.0936073,46.3156927 75.3621263,48.8304152 73.5916911,50.7175037 C71.1331312,53.3386344 66.749111,51.130228 66.749111,51.130228 L67.6824831,47.8134318 C67.6824831,47.8134318 68.2313359,48.1881282 69.0000163,48.1881282 C70.0239687,48.1881282 71.031094,47.0940425 71.031094,45.8342391 L70.9763161,30 L75.0936073,30 Z M111.866747,30.0387256 L122.301037,30.0387256 L122.301037,33.3775012 L115.876988,33.3775012 L115.876988,36.4884585 L121.288899,36.4884585 L121.288899,39.7131506 L115.837964,39.7131506 L115.837964,42.7103732 L122.807285,42.7103732 L122.807285,45.9730931 L111.866747,45.9730931 L111.866747,30.0387256 Z M126.427995,30.0387256 L136.862285,30.0387256 L136.862285,33.3775012 L130.438237,33.3775012 L130.438237,36.4884585 L135.850147,36.4884585 L135.850147,39.7131506 L130.399212,39.7131506 L130.399212,42.7103732 L137.368533,42.7103732 L137.368533,45.9730931 L126.427995,45.9730931 L126.427995,30.0387256 Z M107.934555,34.0602581 L102.016754,42.5205829 L108.090296,42.5205829 L108.090296,45.9730931 L96.5267936,45.9730931 L96.5267936,41.9515606 L102.562027,33.3775012 L96.7605841,33.3775012 L96.7605841,30.0387256 L107.934555,30.0387256 L107.934555,34.0602581 Z M44.710862,30.023026 L49.3229443,30.023026 L54.9335592,45.8963397 L50.4761439,45.8963397 L49.6559078,43.0536705 L44.2078364,43.0536705 L43.2175384,45.8963397 L39,45.8963397 L44.710862,30.023026 Z M148.700392,30.0383767 C151.212298,30.0383767 152.670177,32.2115463 152.670177,34.4119285 C152.670177,36.6123107 151.540249,37.2849501 151.540249,37.2849501 C151.540249,37.2849501 150.774075,37.8961868 150.147531,38.317982 C150.733618,38.317982 151.269582,39.5997648 151.269582,39.5997648 L153.800105,45.8963397 L149.590085,45.8890132 C149.590085,45.8890132 147.633835,40.9384149 147.137254,40.3617173 C146.715858,39.8722396 146.037042,39.9769034 145.078608,39.9769034 L145.078608,45.8963397 L140.992823,45.8963397 L140.992823,30.0383767 L148.700392,30.0383767 Z M83.4456222,30.023026 L88.0577045,30.023026 L93.6683194,45.8963397 L89.210904,45.8963397 L88.390668,43.0536705 L82.9425966,43.0536705 L81.9522985,45.8963397 L77.7347602,45.8963397 L83.4456222,30.023026 Z M160.777661,30.023026 L165.389743,30.023026 L171,45.8963397 L166.542585,45.8963397 L165.722349,43.0536705 L160.274635,43.0536705 L159.283979,45.8963397 L155.066441,45.8963397 L160.777661,30.023026 Z M57.8267619,30.0387256 L61.8370035,30.0387256 L61.8370035,42.5205829 L67.0541486,42.5205829 L67.0541486,45.8593584 L57.7877371,45.8593584 L57.8267619,30.0387256 Z M48.4873132,39.3736909 L46.9474462,34.6683549 L45.3997027,39.3736909 L48.4873132,39.3736909 Z M87.2220733,39.3736909 L85.6822064,34.6683549 L84.1344629,39.3736909 L87.2220733,39.3736909 Z M164.554112,39.3736909 L163.013887,34.6683549 L161.466144,39.3736909 L164.554112,39.3736909 Z M147.028772,33.4239021 L145.055695,33.4239021 L145.055695,36.5533501 L147.05992,36.5533501 C147.809983,36.5533501 148.514577,35.8255877 148.514577,35.0001391 C148.514577,34.1743417 147.76523,33.424251 147.028772,33.4239021 Z" id="Shape" fill="#00529C"></path>
                    </g>
                </g>
            </g>
        </g>
    </g>
</svg>