<?xml version="1.0" encoding="UTF-8"?>
<svg width="146px" height="86px" viewBox="0 0 146 86" version="1.1" xmlns="http://www.w3.org/2000/svg" xmlns:xlink="http://www.w3.org/1999/xlink">
    <title>2018_Animal_Planet_logo</title>
    <defs>
        <filter id="filter-1">
            <feColorMatrix in="SourceGraphic" type="matrix" values="0 0 0 0 0.427734 0 0 0 0 0.418818 0 0 0 0 0.421047 0 0 0 1.000000 0"></feColorMatrix>
        </filter>
    </defs>
    <g id="Designs" stroke="none" stroke-width="1" fill="none" fill-rule="evenodd">
        <g id="Desktop-No-Promo" transform="translate(-835.000000, -2840.000000)">
            <g id="logos" transform="translate(225.000000, 2798.000000)" filter="url(#filter-1)">
                <g transform="translate(2.500000, 42.000000)">
                    <g id="2018_Animal_Planet_logo" transform="translate(607.500000, 0.000000)" fill-rule="nonzero">
                        <path d="M5.17420007,71 C1.98311708,71 0,73.5785823 0,76.4176313 C0,79.6878024 2.36457799,82 5.22905031,82 C7.33993729,82 8.64804469,80.4625648 8.64804469,80.4625648 L8.64804469,81.6339454 L12,81.6339454 L12,71.3843729 L8.64804469,71.3843729 L8.64804469,72.6533755 C8.64804469,72.6533755 7.50853645,71 5.17420007,71 Z M6.16150332,73.8308433 C7.6775624,73.8308433 8.74555604,75.3361473 8.74555604,76.4725579 C8.74555604,78.0288763 7.53400288,79.089867 6.16150332,79.089867 C4.85525388,79.089867 3.5043162,78.2055762 3.5043162,76.4908479 C3.5043162,75.1331775 4.62273986,73.8308433 6.16150332,73.8308433 Z" id="path17862" fill="#000000"></path>
                        <path d="M15,81 L15,70.4039513 L18.46,70.4039513 L18.46,71.7937184 C18.46,71.7937184 19.6100404,70 22.151544,70 C25.0234467,70 26,71.837171 26,74.1378069 L26,81 L22.5400001,81 L22.5400001,75.3487701 C22.5400001,73.5624399 21.8567364,72.8271042 20.718222,72.8271042 C19.4145488,72.8271042 18.46,73.9644492 18.46,75.7524294 L18.46,81 L15,81 Z" id="path17866" fill="#000000"></path>
                        <polygon id="path17869" fill="#000000" points="28 81 28 71 32 71 32 81"></polygon>
                        <path d="M32,67 C32,68.1045756 31.1045696,69 30,69 C28.8954304,69 28,68.1045756 28,67 C28,65.8954244 28.8954304,65 30,65 C31.1045696,65 32,65.8954244 32,67 L32,67 Z" id="path17871" fill="#000000"></path>
                        <path d="M45.2365596,75.9592839 L45.2365596,81 L41.7021515,81 L41.7021515,75.354398 C41.7021515,73.5698466 41.004193,72.8352433 39.8411954,72.8352433 C38.5094864,72.8352433 37.5344096,73.9714556 37.5344096,75.7576552 L37.5344096,81 L34,81 L34,70.4145035 L37.5344096,70.4145035 L37.5344096,71.8028865 C37.5344096,71.8028865 38.7091808,70.0109544 41.3053404,70.0109544 C43.1048125,70.0109544 44.1758338,70.7014921 44.73501,71.7658369 C44.73501,71.7658369 45.8894958,70 48.8567852,70 C51.639933,70 53,71.6711124 53,73.943012 L53,81 L49.4655919,81 L49.4655919,75.354398 C49.4655919,73.977684 48.9164276,72.8023946 47.6033869,72.8023946 C46.2613971,72.8023946 45.2365596,73.9965152 45.2365596,75.9592839 L45.2365596,75.9592839 Z" id="path17873" fill="#000000"></path>
                        <path d="M59.1741998,71 C55.983117,71 54,73.5785823 54,76.4176313 C54,79.6878024 56.3645779,82 59.2290497,82 C61.3399383,82 62.648044,80.4625648 62.648044,80.4625648 L62.648044,81.6339454 L66,81.6339454 L66,71.3843729 L62.648044,71.3843729 L62.648044,72.6533755 C62.648044,72.6533755 61.5085373,71 59.1741998,71 L59.1741998,71 Z M60.1615031,73.8308433 C61.6775624,73.8308433 62.7455555,75.3361473 62.7455555,76.4725579 C62.7455555,78.0288763 61.5340033,79.089867 60.1615031,79.089867 C58.855254,79.089867 57.5043174,78.2055762 57.5043174,76.4908479 C57.5043174,75.1331775 58.6227403,73.8308433 60.1615031,73.8308433 L60.1615031,73.8308433 Z" id="path17877" fill="#000000"></path>
                        <polygon id="path17879" fill="#000000" points="69 81 69 66 73 66 73 81"></polygon>
                        <path d="M104.1742,71 C100.983117,71 99,73.5785823 99,76.4176313 C99,79.6878024 101.364578,82 104.22905,82 C106.339939,82 107.648045,80.4625648 107.648045,80.4625648 L107.648045,81.6339454 L111,81.6339454 L111,71.3843729 L107.648045,71.3843729 L107.648045,72.6533755 C107.648045,72.6533755 106.508538,71 104.1742,71 Z M105.161504,73.8308433 C106.677562,73.8308433 107.745557,75.3361473 107.745557,76.4725579 C107.745557,78.0288763 106.534004,79.089867 105.161504,79.089867 C103.855253,79.089867 102.504316,78.2055762 102.504316,76.4908479 C102.504316,75.1331775 103.622739,73.8308433 105.161504,73.8308433 Z" id="path17881" fill="#000000"></path>
                        <polygon id="path17883" fill="#000000" points="93 81 93 66 97 66 97 81"></polygon>
                        <path d="M86.8258002,71 C90.016883,71 92,73.6256198 92,76.5164579 C92,79.8462822 89.6354221,82.2006581 86.7709503,82.2006581 C84.6600617,82.2006581 83.351956,80.6351776 83.351956,80.6351776 L83.351956,86 L80,86 L80,71.3913845 L83.351956,71.3913845 L83.351956,72.6835358 C83.351956,72.6835358 84.4914627,71 86.8258002,71 L86.8258002,71 Z M85.8384969,73.8824825 C84.3224376,73.8824825 83.2544445,75.4152458 83.2544445,76.5723864 C83.2544445,78.1570945 84.4659967,79.2374395 85.8384969,79.2374395 C87.144746,79.2374395 88.4956826,78.3370178 88.4956826,76.59101 C88.4956826,75.2085735 87.3772597,73.8824825 85.8384969,73.8824825 Z" id="path17885" fill="#000000"></path>
                        <path d="M113,81 L113,70.4039513 L116.46,70.4039513 L116.46,71.7937184 C116.46,71.7937184 117.610041,70 120.151544,70 C123.023446,70 124,71.837171 124,74.1378069 L124,81 L120.54,81 L120.54,75.3487701 C120.54,73.5624399 119.856735,72.8271042 118.718222,72.8271042 C117.414547,72.8271042 116.46,73.9644492 116.46,75.7524294 L116.46,81 L113,81 Z" id="path17887" fill="#000000"></path>
                        <path d="M131.521866,71 C128.311298,71 126,73.0688556 126,76.5030682 C126,79.8618621 128.335422,82 132.146981,82 C134.027621,82 135.885425,81.163239 135.885425,81.163239 L135.131608,78.7323902 C135.131608,78.7323902 133.864118,79.3797842 132.422768,79.3797842 C130.611927,79.3797842 129.768722,78.3649817 129.542329,77.4436538 L136.994702,77.4436538 C137.100107,73.9377693 135.645209,71 131.521866,71 L131.521866,71 Z M131.668951,73.467526 C132.858895,73.467526 133.717393,74.2988293 133.871226,75.3914542 L129.487171,75.3914542 C129.609686,74.2172599 130.694924,73.467526 131.668951,73.467526 L131.668951,73.467526 Z" id="path17889" fill="#000000"></path>
                        <path d="M143.554018,69 L143.554018,71.437076 L145.714026,71.437076 L145.714026,74.0691327 L143.554018,74.0691327 L143.554018,78.1634181 C143.554018,79.0003233 143.8688,79.4091566 144.788187,79.4091566 C145.200282,79.4091566 145.732089,79.2591693 145.732089,79.2591693 L146,81.6955683 C146,81.6955683 145.307613,82 144.035689,82 C141.662727,82 140.404006,80.733147 140.404006,78.3583848 L140.404006,74.0691327 L139,74.0691327 L139,71.437076 L140.404006,71.437076 L140.404006,69 L143.554018,69 Z" id="path17893" fill="#000000"></path>
                        <path d="M82.0601266,0 L82.0601266,16.7445633 C82.0601266,16.7445633 84.6856607,18.8728648 85.9345452,20.5818688 C79.5027178,16.4257972 72.6694611,14.6801372 64.3604599,14.6801372 C50.6826436,14.6801372 38.2289699,20.9565277 32.0805989,31.3451508 L32.8741986,32.8224558 C32.8741986,32.8224558 35.5495392,29.6367575 41.7309657,26.5122301 C34.9792101,33.1088698 32.1512908,38.3711789 28,50.5047205 L34.585177,57 C43.2013178,47.4520656 55.8779624,41.1434539 70.1884108,41.1434539 C83.7293671,41.1434539 96.1979962,47.1456733 103.993225,55.1250916 L111.086825,48.0783437 C107.110221,41.3380317 101.946509,35.1215326 97.8420824,30.8055036 C102.088686,33.2073946 108.868616,34.5811729 115.344884,34.5811729 C126.674776,34.5811729 135,28.5392442 135,20.3128013 C135,10.1789526 126.22738,4.01174496 111.918669,1.66670638 L109.604801,5.51147099 C116.805686,6.78330753 128.008164,10.9342609 128.008164,18.3496481 C128.008164,22.4173876 124.830968,25.8292887 120.25334,25.8292887 C114.595794,25.8292887 109.897363,19.580612 107.042333,14.0626996 L102.672753,13.9585332 C97.6577399,7.81216178 89.5502418,1.81421731 82.0601266,0 L82.0601266,0 Z" id="path17895" fill="#0074FF"></path>
                    </g>
                </g>
            </g>
        </g>
    </g>
</svg>