<?xml version="1.0" encoding="UTF-8"?>
<svg width="81px" height="48px" viewBox="0 0 81 48" version="1.1" xmlns="http://www.w3.org/2000/svg" xmlns:xlink="http://www.w3.org/1999/xlink">
    <title>dji-3</title>
    <g id="Designs" stroke="none" stroke-width="1" fill="none" fill-rule="evenodd">
        <g id="Desktop" transform="translate(-876.000000, -1461.000000)" fill="#414042" fill-rule="nonzero">
            <g id="dji-3" transform="translate(876.000000, 1461.474333)">
                <path d="M59.9090601,33.5935014 L66,8.52566735 L52.9222939,8.52566735 L47.350526,30.9990025 C46.542925,35.3814204 41.7855446,37.4348387 38.4160163,37.4886107 L29.1421785,37.4886107 L26,46.5256674 L45.4774347,46.5256674 C50.2789277,46.5256674 57.3708856,44.0924844 59.9090601,33.5935014" id="Path"></path>
                <path d="M32.3680037,26.0661976 L38.398744,0.525667351 L51.6051334,0.525667351 L44.7390091,29.5728834 C43.4177045,35.1815596 39.3006925,36.5256441 35.4932052,36.5256441 L5.06658942,36.5256441 C1.71506874,36.5323579 -1.0972798,35.0872395 0.423718163,28.6162083 L3.16617402,17.0316813 C4.55404306,11.1501506 8.87074845,9.80945807 11.99595,9.80945807 L33.2333417,9.80945807 L31.5193068,17.0518928 L20.6792841,17.0518928 C19.0850652,17.0518928 18.2130708,17.3921188 17.7604324,19.2751518 L16.0164435,26.6759095 C15.3907376,29.330346 16.3093271,29.5122491 18.2330401,29.5122491 L28.1677861,29.5122491 C29.984996,29.5156176 31.5825431,29.4010861 32.3680037,26.0661976 M68.1763563,9.79935235 L61.9625637,36.5256207 L74.7862074,36.5256207 L81,9.79935235 L68.1763563,9.79935235 Z" id="Shape"></path>
            </g>
        </g>
    </g>
</svg>