<?xml version="1.0" encoding="UTF-8"?>
<svg width="22px" height="22px" viewBox="0 0 22 22" version="1.1" xmlns="http://www.w3.org/2000/svg" xmlns:xlink="http://www.w3.org/1999/xlink">
    <title>icon/check with circle</title>
    <g id="Designs" stroke="none" stroke-width="1" fill="none" fill-rule="evenodd">
        <g id="Cart-YourRental" transform="translate(-890.000000, -735.000000)" fill="#52BFC0">
            <g id="summary" transform="translate(871.000000, 202.000000)">
                <g id="want-free-shipping-copy" transform="translate(0.000000, 515.000000)">
                    <g id="icon/check-with-circle" transform="translate(18.000000, 17.000000)">
                        <path d="M23,12 L20.56,9.21 L20.9,5.52 L17.29,4.7 L15.4,1.5 L12,2.96 L8.6,1.5 L6.71,4.69 L3.1,5.5 L3.44,9.2 L1,12 L3.44,14.79 L3.1,18.49 L6.71,19.31 L8.6,22.5 L12,21.03 L15.4,22.49 L17.29,19.3 L20.9,18.48 L20.56,14.79 L23,12 Z M10.09,16.72 L6.29,12.91 L7.77,11.43 L10.09,13.76 L15.94,7.89 L17.42,9.37 L10.09,16.72 Z" id="Shape"></path>
                    </g>
                </g>
            </g>
        </g>
    </g>
</svg>