<?xml version="1.0" encoding="UTF-8"?>
<svg width="121px" height="24px" viewBox="0 0 121 24" version="1.1" xmlns="http://www.w3.org/2000/svg" xmlns:xlink="http://www.w3.org/1999/xlink">
    <title>stars</title>
    <g id="Designs" stroke="none" stroke-width="1" fill="none" fill-rule="evenodd">
        <g id="Product-Detail" transform="translate(-836.000000, -351.000000)" fill="#F5A24F">
            <g id="hero" transform="translate(0.000000, 179.000000)">
                <g id="details" transform="translate(734.500000, 64.000000)">
                    <g id="badge-+-stars" transform="translate(1.000000, 108.000000)">
                        <g id="stars" transform="translate(101.000000, 0.000000)">
                            <g id="icon/star-outline-copy-4">
                                <path d="M12,8.89 L12.94,12 L15.76,12 L13.49,13.62 L14.42,16.63 L12,14.79 L9.58,16.63 L10.51,13.62 L8.24,12 L11.06,12 L12,8.89 M12,2 L9.58,10 L2,10 L8.17,14.41 L5.83,22 L12,17.31 L18.18,22 L15.83,14.41 L22,10 L14.42,10 L12,2 L12,2 Z" id="-↳Color"></path>
                            </g>
                            <g id="icon/star-outline-copy-4" transform="translate(24.000000, 0.000000)">
                                <path d="M12,8.89 L12.94,12 L15.76,12 L13.49,13.62 L14.42,16.63 L12,14.79 L9.58,16.63 L10.51,13.62 L8.24,12 L11.06,12 L12,8.89 M12,2 L9.58,10 L2,10 L8.17,14.41 L5.83,22 L12,17.31 L18.18,22 L15.83,14.41 L22,10 L14.42,10 L12,2 L12,2 Z" id="-↳Color"></path>
                            </g>
                            <g id="icon/star-outline-copy-4" transform="translate(48.000000, 0.000000)">
                                <path d="M12,8.89 L12.94,12 L15.76,12 L13.49,13.62 L14.42,16.63 L12,14.79 L9.58,16.63 L10.51,13.62 L8.24,12 L11.06,12 L12,8.89 M12,2 L9.58,10 L2,10 L8.17,14.41 L5.83,22 L12,17.31 L18.18,22 L15.83,14.41 L22,10 L14.42,10 L12,2 L12,2 Z" id="-↳Color"></path>
                            </g>
                            <g id="icon/star-outline-copy-4" transform="translate(72.000000, 0.000000)">
                                <path d="M12,8.89 L12.94,12 L15.76,12 L13.49,13.62 L14.42,16.63 L12,14.79 L9.58,16.63 L10.51,13.62 L8.24,12 L11.06,12 L12,8.89 M12,2 L9.58,10 L2,10 L8.17,14.41 L5.83,22 L12,17.31 L18.18,22 L15.83,14.41 L22,10 L14.42,10 L12,2 L12,2 Z" id="-↳Color"></path>
                            </g>
                            <g id="icon/star-outline-copy-4" transform="translate(96.000000, 0.000000)">
                                <path d="M12,8.89 L12.94,12 L15.76,12 L13.49,13.62 L14.42,16.63 L12,14.79 L9.58,16.63 L10.51,13.62 L8.24,12 L11.06,12 L12,8.89 M12,2 L9.58,10 L2,10 L8.17,14.41 L5.83,22 L12,17.31 L18.18,22 L15.83,14.41 L22,10 L14.42,10 L12,2 L12,2 Z" id="-↳Color"></path>
                            </g>
                        </g>
                    </g>
                </g>
            </g>
        </g>
    </g>
</svg>