<?xml version="1.0" encoding="UTF-8"?>
<svg width="20px" height="20px" viewBox="0 0 20 20" version="1.1" xmlns="http://www.w3.org/2000/svg" xmlns:xlink="http://www.w3.org/1999/xlink">
    <title>Combined Shape</title>
    <g id="Symbols" stroke="none" stroke-width="1" fill="none" fill-rule="evenodd">
        <g id="Group-39" transform="translate(-5.000000, -5.000000)" fill="#3D3C3C">
            <path d="M17.6968849,5.1 C21.4129512,5.1 24.4254182,8.11246698 24.4254182,11.8285333 L24.4254182,18.1714667 C24.4254182,21.887533 21.4129512,24.9 17.6968849,24.9 L11.7313298,24.9 C8.01526349,24.9 5.0027965,21.887533 5.0027965,18.1714667 L5.0027965,11.8285333 C5.0027965,8.11246698 8.01526349,5.1 11.7313298,5.1 L17.6968849,5.1 Z M14.7141074,9.83382578 C11.9098307,9.83382578 9.63939118,12.1483796 9.63939118,15 C9.63939118,17.8516204 11.9098307,20.1661742 14.7141074,20.1661742 C17.518384,20.1661742 19.7888236,17.8516204 19.7888236,15 C19.7888236,12.1483796 17.518384,9.83382578 14.7141074,9.83382578 Z M14.7141074,11.0195401 C16.8650973,11.0195401 18.611695,12.8000739 18.611695,15 C18.611695,17.1999261 16.8650973,18.9804599 14.7141074,18.9804599 C12.5631175,18.9804599 10.8165198,17.1999261 10.8165198,15 C10.8165198,12.8000739 12.5631175,11.0195401 14.7141074,11.0195401 Z M21.0418195,7.47325087 C20.2465955,7.47325087 19.601939,8.1304329 19.601939,8.94110802 C19.601939,9.75178314 20.2465955,10.4089652 21.0418195,10.4089652 C21.8370436,10.4089652 22.4817,9.75178314 22.4817,8.94110802 C22.4817,8.1304329 21.8370436,7.47325087 21.0418195,7.47325087 Z" id="Combined-Shape"></path>
        </g>
    </g>
</svg>