<?xml version="1.0" encoding="UTF-8"?>
<svg width="20px" height="16px" viewBox="0 0 20 16" version="1.1" xmlns="http://www.w3.org/2000/svg" xmlns:xlink="http://www.w3.org/1999/xlink">
    <title>Shape</title>
    <g id="Symbols" stroke="none" stroke-width="1" fill="none" fill-rule="evenodd">
        <g id="icon/toolbox" transform="translate(-2.000000, -4.000000)" fill="#3D3C3C">
            <path d="M20,8 L17,8 L17,6 C17,4.9 16.1,4 15,4 L9,4 C7.9,4 7,4.9 7,6 L7,8 L4,8 C2.9,8 2,8.9 2,10 L2,20 L22,20 L22,10 C22,8.9 21.1,8 20,8 Z M9,6 L15,6 L15,8 L9,8 L9,6 Z M20,18 L4,18 L4,15 L6,15 L6,16 L8,16 L8,15 L16,15 L16,16 L18,16 L18,15 L20,15 L20,18 Z M18,13 L18,12 L16,12 L16,13 L8,13 L8,12 L6,12 L6,13 L4,13 L4,10 L7,10 L17,10 L20,10 L20,13 L18,13 Z" id="Shape"></path>
        </g>
    </g>
</svg>