<?xml version="1.0" encoding="UTF-8"?>
<svg width="24px" height="24px" viewBox="0 0 24 24" version="1.1" xmlns="http://www.w3.org/2000/svg" xmlns:xlink="http://www.w3.org/1999/xlink">
    <title>icon/search copy 2</title>
    <g id="Designs" stroke="none" stroke-width="1" fill="none" fill-rule="evenodd">
        <g id="m-List" transform="translate(-212.000000, -151.000000)" fill="#E64B4F">
            <g id="search" transform="translate(-1.000000, 133.000000)">
                <g id="icon/search-copy" transform="translate(213.000000, 18.000000)">
                    <path d="M7,11 L9,11 L9,13 L7,13 L7,11 Z M21,6 L21,20 C21,21.1 20.1,22 19,22 L5,22 C3.89,22 3,21.1 3,20 L3.01,6 C3.01,4.9 3.89,4 5,4 L6,4 L6,2 L8,2 L8,4 L16,4 L16,2 L18,2 L18,4 L19,4 C20.1,4 21,4.9 21,6 Z M5,8 L19,8 L19,6 L5,6 L5,8 Z M19,20 L19,10 L5,10 L5,20 L19,20 Z M15,13 L17,13 L17,11 L15,11 L15,13 Z M11,13 L13,13 L13,11 L11,11 L11,13 Z" id="Shape"></path>
                </g>
            </g>
        </g>
    </g>
</svg>