<?xml version="1.0" encoding="UTF-8"?>
<svg width="20px" height="17px" viewBox="0 0 20 17" version="1.1" xmlns="http://www.w3.org/2000/svg" xmlns:xlink="http://www.w3.org/1999/xlink">
    <title>Shape</title>
    <g id="Symbols" stroke="none" stroke-width="1" fill="none" fill-rule="evenodd">
        <g id="icon_twitter" transform="translate(-5.000000, -7.000000)" fill="#3D3C3C">
            <path d="M21.9009362,9.64653041 C22.7128108,9.1242366 23.3357728,8.2960624 23.6281377,7.30950744 C22.8679891,7.79432183 22.0280024,8.14493572 21.1317918,8.33475083 C20.4166224,7.5126217 19.39447,7 18.263243,7 C16.0929964,7 14.3343095,8.89210602 14.3343095,11.225502 C14.3343095,11.5567716 14.3669194,11.8795782 14.4343882,12.1878766 C11.1688979,12.0113607 8.27336163,10.330832 6.33363342,7.77255958 C5.99516491,8.39882854 5.80175432,9.1242366 5.80175432,9.8980052 C5.80175432,11.3633295 6.49555856,12.6569739 7.55032091,13.4162343 C6.9059938,13.394472 6.29989902,13.2022389 5.7691444,12.8878954 L5.7691444,12.939883 C5.7691444,14.9879518 7.12301846,16.6962877 8.92331114,17.083172 C8.59271398,17.1823111 8.2463741,17.2318807 7.88654047,17.2318807 C7.63353244,17.2318807 7.38614681,17.2064914 7.14775703,17.1569219 C7.6470262,18.8350325 9.09873003,20.0585541 10.8191846,20.0911975 C9.47318191,21.2252521 7.77859037,21.8998816 5.93781642,21.8998816 C5.62071303,21.8998816 5.30698307,21.8817464 5,21.8418489 C6.73957074,23.0399812 8.80524072,23.74 11.0249645,23.74 C18.2553716,23.74 22.2067948,17.3007945 22.2067948,11.7163614 C22.2067948,11.5325914 22.2045458,11.3500303 22.1966745,11.1698873 C22.9646944,10.5738437 23.6326356,9.82909143 24.1577678,8.98157302 C23.4527188,9.31767875 22.6948192,9.54497328 21.9009362,9.64653041 Z" id="Shape"></path>
        </g>
    </g>
</svg>