<?xml version="1.0" encoding="UTF-8"?>
<svg width="143px" height="25px" viewBox="0 0 143 25" version="1.1" xmlns="http://www.w3.org/2000/svg" xmlns:xlink="http://www.w3.org/1999/xlink">
    <title>sony-2</title>
    <g id="Designs" stroke="none" stroke-width="1" fill="none" fill-rule="evenodd">
        <g id="Desktop" transform="translate(-439.000000, -1472.000000)" fill="#000000" fill-rule="nonzero">
            <g id="brands" transform="translate(223.000000, 1401.000000)">
                <g id="sony-2" transform="translate(216.000000, 71.000000)">
                    <path d="M140.326681,19.0004402 C139.429663,18.9835073 138.5935,19.4561827 138.140072,20.2365115 C137.686643,21.0168403 137.686643,21.9831597 138.140072,22.7634885 C138.5935,23.5438173 139.429663,24.0164927 140.326681,23.9995598 C140.984536,23.9988661 141.615072,23.7343045 142.079103,23.2642744 C142.543134,22.7942443 142.802505,22.1573942 142.799982,21.4943022 C142.800194,20.8329695 142.539719,20.1986437 142.075863,19.7309286 C141.612008,19.2632135 140.982787,19.0004401 140.326681,19.0004402 L140.326681,19.0004402 Z M140.326681,23.6988955 C139.746952,23.6995983 139.190856,23.4673589 138.781497,23.0535877 C138.372139,22.6398164 138.143285,22.0786448 138.145583,21.4943022 C138.145829,20.91187 138.37589,20.3534488 138.785047,19.9421829 C139.194205,19.530917 139.748853,19.3005859 140.326681,19.3019764 C140.903445,19.3019764 141.456573,19.5329865 141.864325,19.9441514 C142.272078,20.3553163 142.501035,20.9129436 142.500829,21.4943022 C142.503579,22.0775715 142.275829,22.637949 141.867876,23.0516191 C141.459923,23.4652892 140.905346,23.6982015 140.326681,23.6988955 L140.326681,23.6988955 Z" id="Shape"></path>
                    <path d="M140.392008,20.1503096 C140.59662,20.1503096 140.800471,20.1610372 140.983025,20.2698461 C141.164057,20.3732912 141.254573,20.5901428 141.254573,20.7962668 C141.254573,21.2767118 140.920652,21.4537179 140.488609,21.4659781 L140.488609,21.4659781 L141.221105,22.5923803 L140.868929,22.5923803 L140.176747,21.4659781 L139.631368,21.4659781 L139.631368,22.5923803 L139.33548,22.5923803 L139.33548,20.1503096 Z M140.32279,20.3671612 L139.630608,20.3671612 L139.630608,21.2307362 L140.08547,21.2307362 C140.425476,21.2307362 140.954881,21.2882057 140.954121,20.790903 C140.954121,20.4131368 140.624003,20.3671612 140.32279,20.3671612 L140.32279,20.3671612 Z M127.427667,9.98973212 L131.862196,5.21976338 C132.119292,4.86958254 132.247079,4.62437933 132.247079,4.41442408 C132.247079,4.06424324 131.948148,3.92401765 131.007997,3.92401765 L129.889097,3.92401765 L129.889097,0.912615705 L142,0.912615705 L142,3.92401765 L140.408742,3.92401765 C138.571037,3.92401765 138.22951,4.20370257 135.665394,7.46030773 L128.650015,15.0922577 L128.650015,19.7495862 C128.650015,20.9411206 129.247117,21.3602648 130.957035,21.3602648 L133.605582,21.3602648 L133.605582,24.2659229 L116.642558,24.2659229 L116.642558,21.3602648 L119.291105,21.3602648 C120.999502,21.3602648 121.598125,20.9411206 121.598125,19.7495862 L121.598125,15.0922577 L113.335297,5.88411083 C111.969949,4.27419849 112.158588,3.92401765 108.356911,3.92401765 L108.356911,0.912615705 L123.69749,0.912615705 L123.69749,3.92401765 L122.605212,3.92401765 C121.493918,3.92401765 121.023082,4.13397291 121.023082,4.55388341 C121.023082,4.9048305 121.364609,5.18451542 121.578349,5.46420033 L125.758824,10.054098 C126.255521,10.5743885 126.861751,10.6418194 127.427667,9.98973212 L127.427667,9.98973212 Z M24.5002009,0.911849445 L28.2007124,0.911849445 L28.2007124,9.31465702 L24.7831588,9.31465702 C24.4804242,7.63501502 23.4368267,6.98139521 22.4852666,6.10019616 C20.7685031,4.51097284 17.0504968,3.18764176 13.9235075,3.18764176 C9.8875539,3.18764176 6.48140986,4.44890578 6.48140986,6.30325507 C6.48140986,11.45099 29.5630179,7.35456384 29.5630179,17.0875988 C29.5630179,22.1640716 24.6188606,25 15.7399148,25 C12.6661703,25 8.01485925,24.0391099 5.27047165,22.5709557 C4.41018829,22.0705879 4.04508129,23.0445044 3.8838257,24.2651566 L0.0897554704,24.2651566 L0.0897554704,15.5818979 L3.52176126,15.5818979 C4.27859764,17.7879605 5.3214345,18.2423527 6.28060101,19.1181879 C7.94488041,20.6591369 11.9062913,21.7801753 15.539106,21.7441611 C21.0164716,21.6897566 22.8998152,20.4836633 22.8998152,18.7327591 C22.8998152,16.9826212 21.0370089,16.5619445 15.0348019,15.6171458 L9.93851675,14.7765586 C4.18732089,13.9007233 0,12.6057439 0,7.9844296 C0,3.18764176 5.29709404,0.176239809 13.6724965,0.176239809 C17.2018641,0.176239809 20.154667,0.651321032 22.98881,2.26506467 C23.7737901,2.77922516 24.5100892,2.84052596 24.5002009,0.911849445 Z M96.7183652,14.9803837 L96.7913866,5.6412064 C96.7913866,4.4159566 96.1585344,3.9960461 94.3504941,3.9960461 L92.2260278,3.9960461 L92.2260278,1.09038803 L105.742593,1.09038803 L105.742593,3.9960461 L103.980952,3.9960461 C102.17139,3.9960461 101.538538,4.41672286 101.538538,5.6412064 L101.538538,24.442929 L96.2482899,24.4007847 L79.115644,8.0572243 L79.115644,19.9265923 C79.115644,21.1173604 79.7484961,21.5717526 81.5565364,21.5717526 L83.908434,21.5717526 L83.908434,24.442929 L69.8708305,24.442929 L69.8708305,21.5717526 L72.1968664,21.5717526 C74.0049067,21.5717526 74.6377588,21.1165941 74.6377588,19.9265923 L74.6377588,5.6412064 C74.6377588,4.4159566 74.0049067,3.9960461 72.1968664,3.9960461 L69.8708305,3.9960461 L69.8708305,1.09038803 L82.0075957,1.09038803 L96.7183652,14.9803837 L96.7183652,14.9803837 Z M51.4428154,0 C40.6706377,0 33.9275678,4.7975541 33.9275678,12.4992337 C33.9275678,20.0629866 40.577079,24.8237602 51.1142191,24.8237602 C62.3062699,24.8237602 68.8165841,20.1327162 68.8165841,12.1145712 C68.8173447,4.90253172 61.7920776,0 51.4428154,0 Z M51.1978895,21.7786428 C45.2352358,21.7786428 41.8077939,18.3120824 41.8077939,12.3245265 C41.8077939,6.47796236 45.3843212,3.01140195 51.4960602,3.01140195 C57.3590701,3.01140195 60.786512,6.54845828 60.786512,12.5704959 C60.786512,18.452308 57.3088679,21.7786428 51.1978895,21.7786428 Z" id="Shape"></path>
                </g>
            </g>
        </g>
    </g>
</svg>