<?xml version="1.0" encoding="UTF-8"?>
<svg width="141px" height="36px" viewBox="0 0 141 36" version="1.1" xmlns="http://www.w3.org/2000/svg" xmlns:xlink="http://www.w3.org/1999/xlink">
    <title>nikon-7</title>
    <g id="Designs" stroke="none" stroke-width="1" fill="none" fill-rule="evenodd">
        <g id="Desktop" transform="translate(-658.000000, -1461.000000)" fill="#000000" fill-rule="nonzero">
            <g id="nikon-7" transform="translate(658.000000, 1461.000000)">
                <path d="M107.389243,17.4502943 C106.416723,14.9477533 104.06565,13.017005 101.552617,12.3913698 C94.6636208,10.5417644 85.9365546,11.2766015 81.180925,17.0696048 C78.4253265,20.6323132 76.8049623,25.9907843 78.857725,30.505975 C79.8581172,33.1442599 82.6400814,35.0477078 85.2608379,35.5375991 C91.0432255,36.2989783 98.4994621,36.6258253 103.147369,32.3555803 C107.496212,28.7109706 108.956122,22.6184207 107.389243,17.4502943 Z M93.1246138,28.1664783 C92.4760161,28.4106656 91.4221391,28.5198674 90.8277795,28.0572765 C89.449227,27.295139 89.9079912,25.582036 90.0699523,24.4392089 C90.71855,22.3173574 91.4485048,19.3256834 94.0692613,18.9176934 C94.9302916,18.833517 96.014301,19.21724 96.3660955,20.2235648 C96.6086605,23.2971402 95.7318107,26.4230414 93.1246138,28.1664783 L93.1246138,28.1664783 Z M30.4479317,0 L25.5845791,14.2000244 L21.8873464,0 L12.0627114,0 L0,34.6662598 L11.4788981,34.6662598 L16.051474,21.4467765 L19.4564235,34.6662598 L29.8648718,34.6662598 L41.9268298,0 L30.4479317,0 Z M49.482503,10.3423195 C51.5088999,10.0427729 53.6430198,9.39059558 54.751135,7.37718758 C55.5616937,5.77252794 55.2648906,3.84102129 54.2923708,2.42746479 C52.7254914,0.768204257 50.5634991,0.605159919 48.2674182,0.74090381 C46.1596641,1.04045039 44.0255442,2.10061776 43.2692236,4.3036122 C42.9181824,5.6906266 42.9987863,7.37718758 43.9178213,8.49195585 C45.2677481,10.1519747 47.4568594,10.3961621 49.482503,10.3423195 Z M41.1207909,12.6643742 L33.4363021,34.6981104 L44.331387,34.6981104 L52.0158758,12.6643742 L41.1207909,12.6643742 L41.1207909,12.6643742 Z" id="Shape"></path>
                <path d="M83.2559509,12.743476 L70.5951532,12.743476 L64.2643773,20.2500328 L71.178906,0 L60.0762907,0 L48,34.9686366 L59.1026153,34.9686366 L62.2189801,26.1777112 L63.9725009,34.9686366 L75.562331,34.9686366 L73.6134717,24.3004983 L83.2559509,12.743476 L83.2559509,12.743476 Z M133.110246,12.4780347 C128.241868,12.4780347 125.027457,14.6512873 123.371983,16.1330157 L124.637535,12.7740744 L113.145751,12.7740744 L105.450623,35 L116.943161,35 L120.644787,24.3318617 C121.227785,22.6527735 122.201461,21.8618044 123.857689,21.8618044 C125.513918,21.8618044 125.903841,23.5408926 125.415872,24.9239411 L121.910338,35 L133.012954,35 L137.980131,20.5774359 C139.344484,16.6264152 137.980131,12.4780347 133.110246,12.4780347 Z M138.71397,30.3444381 C138.106097,30.342419 137.522357,30.5855504 137.091322,31.0202942 C136.660287,31.4550381 136.417313,32.0457347 136.415911,32.6622809 C136.414712,33.2809004 136.656417,33.8745455 137.087625,34.3120481 C137.518833,34.7495508 138.10405,34.9948983 138.71397,34.9938835 C139.322232,34.9930729 139.905164,34.7467474 140.334065,34.309288 C140.762967,33.8718286 141.002564,33.2792134 140.999979,32.6622809 C140.999979,32.0474216 140.75909,31.4577564 140.330362,31.023057 C139.901635,30.5883575 139.320183,30.3442478 138.71397,30.3444381 L138.71397,30.3444381 Z M138.71397,34.7139061 C138.177866,34.7145201 137.663633,34.4983688 137.285116,34.1133044 C136.906599,33.7282399 136.695025,33.2060281 136.697216,32.6622809 C136.697632,32.1205357 136.910454,31.601196 137.288774,31.2187705 C137.667095,30.836345 138.179846,30.6222393 138.71397,30.6236543 C139.82374,30.6240837 140.72319,31.5366811 140.72319,32.6622809 C140.725772,33.2048267 140.515361,33.7261133 140.13839,34.1110452 C139.761419,34.4959771 139.248892,34.7128948 138.71397,34.7139061 L138.71397,34.7139061 Z" id="Shape"></path>
                <path d="M139.8,32.2292906 C139.8,32.0603179 139.704054,31.882514 139.515136,31.798322 C139.326218,31.7094201 139.112756,31.7 138.900781,31.7 L137.8,31.7 L137.8,33.7 L138.107921,33.7 L138.107921,32.7774213 L138.676162,32.7774213 L139.398364,33.7 L139.764299,33.7 L139.001934,32.7774213 C139.449684,32.7680012 139.8,32.6225787 139.8,32.2292906 L139.8,32.2292906 Z M138.580216,32.5825434 L138.107921,32.5825434 L138.107921,31.8754489 L138.830123,31.8754489 C139.142507,31.8754489 139.486872,31.9125405 139.486872,32.2222255 C139.486129,32.629055 138.935738,32.5825434 138.580216,32.5825434 L138.580216,32.5825434 Z" id="Shape"></path>
            </g>
        </g>
    </g>
</svg>