<?xml version="1.0" encoding="UTF-8"?>
<svg width="116px" height="46px" viewBox="0 0 116 46" version="1.1" xmlns="http://www.w3.org/2000/svg" xmlns:xlink="http://www.w3.org/1999/xlink">
    <title>hbo</title>
    <defs>
        <filter id="filter-1">
            <feColorMatrix in="SourceGraphic" type="matrix" values="0 0 0 0 0.427734 0 0 0 0 0.418818 0 0 0 0 0.421047 0 0 0 1.000000 0"></feColorMatrix>
        </filter>
    </defs>
    <g id="Designs" stroke="none" stroke-width="1" fill="none" fill-rule="evenodd">
        <g id="Desktop-No-Promo" transform="translate(-654.000000, -2864.000000)">
            <g id="logos" transform="translate(225.000000, 2798.000000)" filter="url(#filter-1)">
                <g transform="translate(2.500000, 42.000000)">
                    <g id="hbo" transform="translate(426.500000, 24.000000)" fill="#000000" fill-rule="nonzero">
                        <path d="M32.8636356,45.7887291 L20.5979235,45.7887291 L20.5979235,28.3149856 L12.6363996,28.3149856 L12.6363996,45.7887291 L0.0449835781,45.7887291 L0,0.753617862 L12.6363996,0.753617862 L12.6363996,17.5061273 L20.5979235,17.5061273 L20.5979235,0.753617862 L32.8636356,0.753617862 L32.8636356,45.7887291 Z M89.0629293,45.99999 C101.710717,45.9948772 112.002846,35.5142656 111.999999,22.8983465 C111.997721,10.016082 101.710717,0.00966764972 89.0629293,6.66209871e-06 C76.4299462,-0.00907308082 69.9750875,9.26531693 68.3801634,13.0089198 C68.3949681,7.38954018 62.8414892,0.755889466 56.3450633,0.749074655 L35.4157418,0.749074655 L35.4157418,45.7728279 L54.9289347,45.7796427 C62.7965056,45.7796427 68.3943987,38.9807329 68.4046481,33.150662 C70.2005748,36.8198698 76.4299462,46.0045315 89.0629293,45.99999 Z M53.2941518,27.6800723 C55.0997584,27.6800723 56.5221506,29.458738 56.5221506,31.4844406 C56.5221506,33.5107111 55.0997584,35.2888089 53.2941518,35.2888089 L47.0875568,35.2888089 L47.0875568,27.6800723 L53.2941518,27.6800723 Z M53.3169283,10.7736618 C55.1225349,10.7736618 56.5449271,12.5517596 56.5449271,14.5780301 C56.5449271,16.6043006 55.1225349,18.3829663 53.3169283,18.3829663 L47.1097639,18.3829663 L47.1097639,10.7736618 L53.3169283,10.7736618 Z M61.5779631,22.907433 C62.9997858,22.7274084 65.3702495,21.1066191 66.2055775,20.0707678 C65.9117607,21.3542239 65.8895536,25.068296 66.2323399,26.3517521 C65.279713,24.8888393 63.0225623,23.0874576 61.5779631,22.907433 Z M77.5790204,22.907433 C77.5790204,16.5776092 82.7236613,11.4460565 89.0703317,11.4460565 C95.4170021,11.4460565 100.562212,16.5776092 100.562212,22.907433 C100.562212,29.2378246 95.4170021,34.3688094 89.0703317,34.3688094 C82.7236613,34.3688094 77.5790204,29.2378246 77.5790204,22.907433 Z M89.0703317,31.9171811 C94.0595229,31.9171811 98.1040591,27.8839488 98.1040591,22.907433 C98.1040591,17.9314851 94.0595229,13.8976848 89.0703317,13.8976848 C84.0811404,13.8976848 80.0366042,17.9314851 80.0366042,22.907433 C80.0366042,27.8839488 84.0811404,31.9171811 89.0703317,31.9171811 Z" id="Shape"></path>
                        <path d="M111.997767,1.542308 C112.955419,1.542308 113.772709,1.88045299 114.448999,2.55610495 C115.121461,3.22856687 115.45833,4.04011484 115.45833,4.99202488 C115.45833,5.95095303 115.122099,6.76824308 114.448999,7.44389505 C113.776537,8.11954701 112.959247,8.457692 111.997767,8.457692 C111.036287,8.457692 110.218997,8.12018502 109.546535,7.44389505 C108.877263,6.76824308 108.542946,5.95095303 108.542946,4.99202488 C108.542946,4.04075285 108.879177,3.22856687 109.552277,2.55610495 C110.227929,1.88045299 111.043305,1.542308 111.997767,1.542308 Z M116,4.9862828 C116,3.88316453 115.6089,2.94273866 114.827339,2.16564319 C114.045777,1.38854773 113.100247,1 111.992025,1 C110.890183,1 109.951033,1.38854773 109.172661,2.16564319 C108.3911,2.9459287 108,3.88635457 108,4.9862828 C108,6.09705718 108.387272,7.04322514 109.161815,7.82351065 C109.939549,8.60826222 110.883165,9 111.992025,9 C113.100885,9 114.045777,8.60826222 114.827339,7.82351065 C115.6089,7.03939708 116,6.09322913 116,4.9862828 Z M113.056225,4.11986602 C113.056225,4.45290693 112.903102,4.67876226 112.59622,4.796794 C112.429699,4.86187096 112.180238,4.89377143 111.847835,4.89377143 L111.138368,4.89377143 L111.138368,3.32426828 L111.808916,3.32426828 C112.244677,3.32426828 112.561767,3.37786107 112.758912,3.48568466 C112.957333,3.59287024 113.056225,3.80405136 113.056225,4.11986602 Z M110.382965,2.78196028 L110.382965,7.15934285 L111.138368,7.15934285 L111.138368,5.43544142 L111.759151,5.43544142 C112.17641,5.43544142 112.46798,5.48265412 112.6345,5.5764415 C112.915224,5.7391339 113.055587,6.07345083 113.055587,6.5793923 L113.055587,6.92646942 L113.071537,7.0674695 C113.075365,7.08533376 113.078555,7.101922 113.082383,7.11659622 C113.086211,7.13127044 113.089401,7.14530664 113.093229,7.15998086 L113.81099,7.15998086 L113.783555,7.10575006 C113.765053,7.06938352 113.751655,6.9934604 113.744637,6.87734269 C113.737619,6.76186299 113.733791,6.65276338 113.733791,6.55195789 L113.733791,6.23103916 C113.733791,6.0102879 113.654039,5.78443257 113.495813,5.55283515 C113.336949,5.32123774 113.086211,5.17832363 112.7436,5.12345482 C113.01603,5.08007018 113.228487,5.00988915 113.380971,4.9116357 C113.668076,4.72725098 113.811628,4.43950873 113.811628,4.04777095 C113.811628,3.49780684 113.583858,3.12776138 113.12832,2.93954861 C112.873116,2.83427706 112.471808,2.78196028 111.925034,2.78196028 L110.382965,2.78196028 Z" id="Shape"></path>
                    </g>
                </g>
            </g>
        </g>
    </g>
</svg>