<?xml version="1.0" encoding="UTF-8"?>
<svg width="190px" height="30px" viewBox="0 0 190 30" version="1.1" xmlns="http://www.w3.org/2000/svg" xmlns:xlink="http://www.w3.org/1999/xlink">
    <title>Panasonic-Logo</title>
    <g id="Designs" stroke="none" stroke-width="1" fill="none" fill-rule="evenodd">
        <g id="Desktop" transform="translate(-1027.000000, -1467.000000)" fill="#175AA7" fill-rule="nonzero">
            <g id="brands" transform="translate(223.000000, 1401.000000)">
                <g id="Panasonic-Logo" transform="translate(804.000000, 66.000000)">
                    <path d="M0,29 L0,0 L12.2599725,0 C16.3958633,0.0439549113 20.3840466,0.260101962 23.1536272,3.94921241 C23.9291049,4.98963534 25,6.90197187 25,10.1111656 C25,14.1483054 23.2274823,16.5771857 22.008872,17.7091937 C19.8301365,19.8743068 16.912856,20.0941115 14.0324978,20.2259939 L8.67799174,20.2259939 L8.67799174,29 L0,29 Z M12.0014799,13.4998668 C13.4416527,13.4632373 15.0664705,13.386303 16.1004483,12.3422173 C16.3958633,12.0344852 16.8759259,11.4153582 16.8759259,10.4079096 C16.8389959,9.40778393 16.3958633,8.7849867 16.1373783,8.4772621 C14.8818381,7.12544181 12.8508176,7.27930034 11.1890723,7.27930034 L8.78876919,7.27930034 L8.78876919,13.4998668 L12.0014799,13.4998668" id="path23367"></path>
                    <path d="M38.3874172,29.3682961 L38.0596036,27.3867039 C36.9668916,28.2703406 34.9635788,30 31.3576117,30 C30.7384107,30 28.0430469,29.9135145 26.185424,28.3154553 C25.3840969,27.5972762 24,25.8676142 24,23.0061549 C24,22.3293363 24.1821112,21.1787371 25.2384044,19.7461278 C26.7317825,17.681812 28.5165479,17.1215511 30.8112582,16.5688166 L34.6721814,16.07248 C35.1092662,15.9446262 35.5827797,15.8205498 36.0927195,15.7378236 C36.2019907,15.6927037 36.8211917,15.6062182 37.1490053,15.354288 C37.4768164,15.1023629 37.73179,14.1322484 37.73179,13.6659865 C37.73179,12.8237284 36.6754917,12.135624 35.0364212,12.135624 C33.5794694,12.135624 32.887416,12.6808372 32.5231836,13.2298097 C32.3410575,13.5231056 32.26821,13.7750359 32.2317838,14.4518571 L24.9105908,14.4067346 C25.2384044,12.6808372 25.566223,11.2895858 26.7682087,9.85698168 C28.2615868,8.1273223 30.629137,7.03312103 35.2549661,7.03312103 C36.1291382,7.03312103 39.6986741,6.65335247 42.3211929,8.46573033 C43.3774837,9.18391723 44.0695371,10.0299476 44.5430482,11.1655068 C45.3443753,12.9365267 45.1258354,15.0797991 45.1258354,16.9373071 L45.1258354,22.8783166 C45.0894092,26.5858011 45.3443753,27.2588655 46,29.3682961 L38.3874172,29.3682961 Z M37.6225163,19.8100444 C36.566218,20.189813 35.473506,20.5282236 34.380794,20.9079973 L33.5794694,21.1599275 C33.1788083,21.2426537 31.9403964,21.5209019 31.9403964,23.1227178 C31.9403964,23.8409021 32.3410575,25.1456731 33.9437067,25.1456731 C34.1622466,25.1456731 35.1456924,25.0479069 35.6556322,24.8787029 C37.1125765,24.4575687 37.2218577,23.4799277 37.6225163,23.0550393 L37.6225163,19.8100444" id="path23369"></path>
                    <path d="M60.9345979,28.9925667 L60.9345979,18.5652484 C60.9345979,19.8073017 61.2753885,14.4932375 60.1394197,13.9688968 C59.7607608,13.7866789 59.0413061,13.4259611 58.1703966,13.4445611 C57.1858877,13.4631508 56.0877793,13.9317121 55.7091204,14.7907374 C55.2925933,15.839419 55.1411412,16.8025672 55.1789964,18.9854662 L55.1789964,29 L47,29 L47,7.41649724 L54.7246063,7.41649724 L54.8382058,9.92291916 C55.8984512,8.64740432 57.1480195,7 61.6919078,7 C65.0240987,7 67.5611035,8.14165075 68.5834807,11.4550389 C68.8106719,12.2917565 68.9242687,13.1024356 69,14.8204938 L69,28.9925667 L60.9345979,28.9925667" id="path23371"></path>
                    <path d="M105.286666,13.8520765 C105.137798,13.0172933 104.542313,11.6348033 102.495349,11.6348033 C101.602128,11.6348033 100.932216,11.8803251 100.597259,12.0918559 C100.411165,12.1711806 100.113429,12.7188797 100.113429,13.345919 C100.113429,13.5121162 100.262297,14.0107181 100.746121,14.3053475 C101.04387,14.4753289 101.751003,14.6830702 102.569783,14.7775087 L105.733277,15.6122867 C107.966329,16.1864395 109.901639,16.5906159 111.464772,18.1770733 C112.246352,18.9287502 112.655742,19.9032924 112.76739,20.2999107 C113.139566,21.4330946 112.953478,22.3207566 112.953478,22.6984871 C112.953478,25.2821562 111.725301,26.8384043 111.018162,27.5069773 C109.492248,28.9272453 107.073108,30 102.644224,30 C98.9596855,30 96.6521929,29.0178995 95.2751412,28.2057805 C92.3349563,26.4757771 92.1860882,23.2915276 92,22.2905394 L99.6668183,22.2641013 C99.7412524,23.0157833 99.8529,23.5785987 100.448385,24.1187474 C100.932216,24.5795817 101.453254,24.8968753 102.830305,24.8968753 C104.467879,24.8968753 105.39832,24.0960884 105.435534,23.367068 C105.472754,23.2801929 105.472754,22.6947158 105.249446,22.4038604 C104.877269,21.7768366 103.872401,21.5124193 102.420915,21.1346887 C102.420915,21.1346887 97.9548105,20.1601464 97.6198542,19.9977257 C96.6149791,19.5293488 92.5582647,18.6039036 92.5582647,14.0107181 C92.5582647,11.427049 93.8608823,10.0483355 94.6052288,9.33821052 C95.9822804,8.12569417 98.2525466,7 102.309267,7 C103.202482,7 106.998674,6.958514 109.827205,8.92270976 C110.608771,9.46285842 111.24147,10.1314392 111.725301,10.924668 C112.395213,12.0503014 112.506868,13.3950161 112.581308,13.8520765 L105.286666,13.8520765" id="path23373"></path>
                    <path d="M133.115459,26.9065315 C131.821378,28.2441444 129.15926,30 124.759378,30 C123.354368,30 119.472127,29.9171049 116.625144,26.4882862 C115.441974,25.0263397 114,22.5997915 114,18.2478458 C114,17.494253 114,15.779854 114.702502,13.8996544 C116.292381,9.13323317 120.618315,6.95913744 125.166089,7.00058112 C126.386228,7.00058112 130.19453,7.1249225 132.930591,9.96970824 C134.298623,11.3902162 136.036396,13.9825521 135.99942,18.5831805 C135.99942,19.7097924 135.925472,23.9788507 133.115459,26.9065315 Z M127.199654,13.7037193 C126.497151,13.0330345 125.424904,12.8973839 125.055165,12.8973839 C124.13083,12.8973839 123.465291,13.4437403 123.243452,13.6095202 C122.282133,14.4045594 121.579633,15.6140611 121.579633,18.3307358 C121.579633,20.4633801 122.060294,24.0316035 125.018194,24.0316035 C125.868589,24.0316035 126.682015,23.8055313 127.199654,23.1800547 C127.902149,22.3850233 128.641633,20.9494364 128.604657,18.4399983 C128.604657,18.3156569 128.641633,15.2071224 127.199654,13.7037193" id="path23381"></path>
                    <path d="M159,7.84411632 L167,7.84411632 L167,29 L159,29 L159,7.84411632 Z M159,0 L167,0 L167,5.5039451 L159,5.5039451 L159,0 Z" id="path23383"></path>
                    <path d="M182.318644,16.4334555 C181.722031,13.8778613 180.454244,13.7500858 179.037289,13.7500858 C177.881358,13.7500858 177.508473,14.1334197 177.135598,14.4510445 C176.128812,15.2907415 175.79322,16.3312331 175.79322,18.9269833 C175.79322,19.1241354 175.681356,22.5924358 177.62034,23.9103863 C178.17966,24.2718272 178.440679,24.2937277 179.111865,24.2937277 C179.335593,24.2937277 180.006778,24.3156357 180.603391,24.0381643 C181.386439,23.6803835 182.20678,23.0232333 182.355935,21.2233665 L190,21.1613076 C189.925427,21.6432113 189.627117,23.3408581 188.88136,24.7391356 C186.979666,28.4520441 183.101693,30 179.186446,30 C177.583057,30 176.464406,29.762702 175.79322,29.6422192 C172.698302,28.8828416 169.976272,26.7653475 168.783056,23.7314972 C168.447464,22.8151359 168,21.4168585 168,19.0985748 C168,18.1420576 168.037291,15.6667727 169.416949,13.1915054 C169.60339,12.7935611 170.237296,11.7932354 171.132203,10.8768617 C174.040681,8.08031936 178.366105,8 179.410175,8 C183.437287,8 185.935597,9.47859177 187.166104,10.5957552 C187.538989,10.9571835 188.284746,11.9210109 188.88136,13.2389614 C189.366106,14.3159639 189.627117,15.2761387 189.813563,16.4334555 L182.318644,16.4334555" id="path23385"></path>
                    <path d="M91.1272729,23.0169305 L91.1272729,17.0902092 C91.1272729,15.2374067 91.1272729,12.7457112 90.3636322,10.9793426 C89.8545426,9.84059985 89.4909052,9.20922175 88.4363659,8.49515944 C85.8181784,6.68370163 81.9636395,7.02569272 81.0909062,7.02569272 C76.4727264,7.02569272 74.1090902,8.2847018 72.618181,10.0134857 C71.4181829,11.4453678 71.1636381,12.84718 70.8363607,14.5759614 L78.1454541,14.5759614 C78.1818204,13.8994786 78.2909127,13.647684 78.436359,13.3507821 C78.8363623,12.8058353 79.4181783,12.1180854 80.8727212,12.1180854 C82.5090892,12.1180854 83.5636347,12.9787212 83.5636347,13.8205621 C83.5636347,14.2828144 83.5272747,15.0382213 83.2000038,15.2900237 C82.8727327,15.5455783 82.0363593,15.8462453 81.890907,15.8875823 C81.5272759,15.9514742 81.0545462,16.0642153 80.4727241,16.2220611 L76.6545449,16.7219057 C74.363635,17.2706074 72.581821,17.7516597 71.0909056,19.8149224 C70,21.2468044 70,22.5546653 70,23.2273881 C70,26.0911548 71.1999981,27.7447668 72,28.4625891 C73.8545454,30.059837 76.5090926,29.9997052 77.1636408,29.9997052 C80.7636351,29.9997052 82.6545415,28.3648726 83.7818133,27.4816973 L84.1090844,29.5487201 L92,29.5487201 C91.5636365,28.1168354 91.0909067,27.3689433 91.1272729,23.0169305 Z M81.4909096,25.0275736 C80.9818137,25.1966995 80.1090867,25.1591148 79.8909093,25.1478374 C78.5818175,25.0576409 77.8909093,23.8249416 77.8909093,23.1071218 C77.8909093,21.5061191 79.1272737,21.2468044 79.527277,21.164128 L80.3636378,20.9235979 C81.4181836,20.5440222 82.5090892,20.2245705 83.5636347,19.844987 L83.600001,22.6298295 C83.2727236,23.2574528 82.9090863,24.6066532 81.4909096,25.0275736" id="path23387"></path>
                    <path d="M150.274614,28.959157 L150.274614,18.480845 C150.274614,19.7210111 150.637309,14.4818577 149.549222,13.9545987 C149.186534,13.78009 148.497407,13.4162028 147.69948,13.4347771 C146.756475,13.4533361 145.668391,13.921188 145.341967,14.7789081 C144.906733,15.8259963 144.689119,16.5389035 144.725391,18.714771 L144.652848,29 L137,28.966574 L137,7.41586443 L144.362698,7.41586443 L144.471501,9.91849347 C145.487049,8.64490132 146.683939,7 151.072541,7 C154.227976,7 156.658028,8.37384214 157.637312,11.6822037 C157.854925,12.5176424 157.89119,13.0634603 158,14.7789081 L158,28.966574 L150.274614,28.959157" id="path23389"></path>
                </g>
            </g>
        </g>
    </g>
</svg>