<?xml version="1.0" encoding="UTF-8"?>
<svg width="30px" height="22px" viewBox="0 0 30 22" version="1.1" xmlns="http://www.w3.org/2000/svg" xmlns:xlink="http://www.w3.org/1999/xlink">
    <title>Group 3</title>
    <defs>
        <polygon id="path-1" points="0 0 30 0 30 21.1111111 0 21.1111111"></polygon>
    </defs>
    <g id="Page-1" stroke="none" stroke-width="1" fill="none" fill-rule="evenodd">
        <g id="footer" transform="translate(-151.000000, -293.000000)">
            <g id="social-links" transform="translate(151.000000, 288.000000)">
                <g id="Group-3" transform="translate(0.000000, 5.000000)">
                    <mask id="mask-2" fill="white">
                        <use xlink:href="#path-1"></use>
                    </mask>
                    <g id="Clip-2"></g>
                    <path d="M11.9318182,15.0108513 L11.9318182,6.10025986 L19.7727273,10.5557258 L11.9318182,15.0108513 Z M29.3730682,3.2965681 C29.0280682,1.99891577 28.0114773,0.977069892 26.7207955,0.630268817 C24.3813068,0 15,0 15,0 C15,0 5.61869318,0 3.27920455,0.630268817 C1.98852273,0.977069892 0.971931818,1.99891577 0.626931818,3.2965681 C0,5.64841398 0,10.5555556 0,10.5555556 C0,10.5555556 0,15.4625269 0.626931818,17.814543 C0.971931818,19.1121953 1.98852273,20.1340412 3.27920455,20.4810125 C5.61869318,21.1111111 15,21.1111111 15,21.1111111 C15,21.1111111 24.3813068,21.1111111 26.7207955,20.4810125 C28.0114773,20.1340412 29.0280682,19.1121953 29.3730682,17.814543 C30,15.4625269 30,10.5555556 30,10.5555556 C30,10.5555556 30,5.64841398 29.3730682,3.2965681 L29.3730682,3.2965681 Z" id="Fill-1" fill="#FEFEFE" mask="url(#mask-2)"></path>
                </g>
            </g>
        </g>
    </g>
</svg>