<?xml version="1.0" encoding="UTF-8"?>
<svg width="21px" height="21px" viewBox="0 0 21 21" version="1.1" xmlns="http://www.w3.org/2000/svg" xmlns:xlink="http://www.w3.org/1999/xlink">
    <title>Combined Shape</title>
    <g id="Page-1" stroke="none" stroke-width="1" fill="none" fill-rule="evenodd">
        <g id="footer" transform="translate(-226.000000, -293.000000)" fill="#FFFFFF">
            <g id="social-links" transform="translate(151.000000, 288.000000)">
                <g id="ig" transform="translate(70.000000, 0.000000)">
                    <path d="M18.5110655,5.27 C22.2271319,5.27 25.2395988,8.28246698 25.2395988,11.9985333 L25.2395988,19.0014667 C25.2395988,22.717533 22.2271319,25.73 18.5110655,25.73 L11.8980897,25.73 C8.18202337,25.73 5.16955639,22.717533 5.16955639,19.0014667 L5.16955639,11.9985333 C5.16955639,8.28246698 8.18202337,5.27 11.8980897,5.27 L18.5110655,5.27 Z M15.2045776,10.16162 C12.3068251,10.16162 9.96070421,12.5533256 9.96070421,15.5 C9.96070421,18.4466744 12.3068251,20.83838 15.2045776,20.83838 C18.1023301,20.83838 20.448451,18.4466744 20.448451,15.5 C20.448451,12.5533256 18.1023301,10.16162 15.2045776,10.16162 Z M15.2045776,11.3868581 C17.4272672,11.3868581 19.2320848,13.226743 19.2320848,15.5 C19.2320848,17.773257 17.4272672,19.6131419 15.2045776,19.6131419 C12.981888,19.6131419 11.1770704,17.773257 11.1770704,15.5 C11.1770704,13.226743 12.981888,11.3868581 15.2045776,11.3868581 Z M21.7432135,7.72235923 C20.921482,7.72235923 20.255337,8.40144733 20.255337,9.23914495 C20.255337,10.0768426 20.921482,10.7559307 21.7432135,10.7559307 C22.564945,10.7559307 23.23109,10.0768426 23.23109,9.23914495 C23.23109,8.40144733 22.564945,7.72235923 21.7432135,7.72235923 Z" id="Combined-Shape"></path>
                </g>
            </g>
        </g>
    </g>
</svg>